<svg xmlns="http://www.w3.org/2000/svg" fill="none" width="38" height="38" viewBox="0 0 38 38"><defs><clipPath id="a"><rect x="10" y="10" width="18" height="18" rx="0"/></clipPath></defs><rect width="38" height="38" rx="19" fill="#F5F7F9"/><g clip-path="url(#a)" fill-rule="evenodd" fill="#303133"><path d="M12.25 12.25v13.5q0 .621.44 1.06.439.44 1.06.44h10.5q.621 0 1.06-.44.44-.439.44-1.06v-10.5q0-.15-.057-.287-.057-.138-.163-.243l-3.75-3.75q-.105-.106-.243-.163-.138-.057-.287-.057h-7.5q-.621 0-1.06.44-.44.439-.44 1.06Zm12 13.5h-10.5v-13.5h7.19l3.31 3.31v10.19Z"/><path d="M16 18.25h6q.074 0 .146-.014.073-.015.141-.043.068-.028.13-.07.061-.04.113-.093.053-.052.094-.113.04-.062.069-.13.028-.068.043-.14.014-.073.014-.147t-.014-.146q-.015-.073-.043-.141-.028-.068-.07-.13-.04-.061-.093-.113-.052-.053-.113-.094-.062-.04-.13-.069-.068-.028-.14-.043-.073-.014-.147-.014h-6q-.074 0-.146.014-.073.015-.141.043-.068.028-.13.07-.061.04-.113.093-.053.052-.094.113-.04.062-.069.13-.028.068-.043.14-.014.073-.014.147t.014.146q.015.073.043.141.028.068.07.13.04.061.093.113.052.053.113.094.062.04.13.069.068.028.14.043.073.014.147.014Zm0 3h6q.074 0 .146-.014.073-.015.141-.043.068-.028.13-.07.061-.04.113-.093.053-.052.094-.113.04-.062.069-.13.028-.068.043-.14.014-.073.014-.147t-.014-.146q-.015-.073-.043-.141-.028-.068-.07-.13-.04-.061-.093-.113-.052-.053-.113-.094-.062-.04-.13-.069-.068-.028-.14-.043-.073-.014-.147-.014h-6q-.074 0-.146.014-.073.015-.141.043-.068.028-.13.07-.061.04-.113.093-.053.052-.094.113-.04.062-.069.13-.028.068-.043.14-.014.073-.014.147t.014.146q.015.073.043.141.028.068.07.13.04.061.093.113.052.053.113.094.062.04.13.069.068.028.14.043.073.014.147.014Z"/></g></svg>