<svg xmlns="http://www.w3.org/2000/svg" fill="none" width="38" height="38" viewBox="0 0 38 38"><defs><clipPath id="a"><rect x="10" y="10" width="18" height="18" rx="0"/></clipPath></defs><rect width="38" height="38" rx="19" fill="#F5F7F9"/><g clip-path="url(#a)" fill-rule="evenodd" fill="#303133"><path d="m16.742 15.238 6.906.008q.201 0 .376-.1.064-.038.12-.086.055-.049.1-.108.045-.058.077-.124.033-.067.052-.138.02-.071.024-.145.005-.074-.005-.147t-.033-.143q-.024-.07-.06-.134l-1.73-2.996q-.037-.064-.086-.12-.049-.055-.107-.1-.059-.045-.125-.078-.066-.032-.138-.051-.071-.02-.145-.024-.074-.005-.147.004-.073.01-.143.034-.07.024-.134.06l-5.176 2.989q-.085.05-.155.119-.07.07-.12.155-.049.085-.074.18-.026.096-.026.195 0 .073.014.146.015.072.043.14.028.069.07.13.04.062.092.114.052.052.114.093.061.042.13.07.068.028.14.043.072.014.146.014Zm5.607-1.494-2.812-.003 2.108-1.216.704 1.22Z"/><path d="M10.75 15.25v10.5q0 .621.44 1.06.439.44 1.06.44h13.5q.621 0 1.06-.44.44-.439.44-1.06v-10.5q0-.621-.44-1.06-.439-.44-1.06-.44h-13.5q-.621 0-1.06.44-.44.439-.44 1.06Zm15 10.5h-13.5v-10.5h13.5v10.5Z"/><path d="M21.31 18.631q-.81.77-.81 1.869 0 1.098.81 1.869.793.756 1.909.756H26.5q.074 0 .146-.014.073-.015.141-.043.068-.028.13-.07.061-.04.113-.093.053-.052.094-.113.04-.062.069-.13.028-.068.043-.14.014-.073.014-.147v-3.75q0-.074-.014-.146-.015-.073-.043-.141-.028-.068-.07-.13-.04-.061-.093-.113-.052-.053-.113-.094-.062-.04-.13-.069-.068-.028-.14-.043-.073-.014-.147-.014h-3.281q-1.116 0-1.91.756Zm1.034 2.652Q22 20.955 22 20.5t.344-.783q.36-.342.875-.342h2.531v2.25h-2.531q-.516 0-.875-.342Z"/><path d="M25.75 16.188v9q0 .073.014.146.015.072.043.14.028.069.07.13.04.062.093.114.052.052.113.093.062.041.13.07.068.028.14.042.073.015.147.015t.146-.015q.073-.014.141-.043.068-.028.13-.069.061-.04.113-.093.053-.052.094-.114.04-.061.069-.13.028-.068.043-.14.014-.073.014-.146v-9q0-.074-.014-.147-.015-.072-.043-.14-.028-.069-.07-.13-.04-.062-.093-.114-.052-.052-.113-.093-.062-.041-.13-.07-.068-.028-.14-.042-.073-.014-.147-.014t-.146.014q-.073.014-.141.043-.068.028-.13.069-.061.04-.113.093-.053.052-.094.114-.04.061-.069.13-.028.068-.043.14-.014.073-.014.146Z"/></g></svg>