<svg xmlns="http://www.w3.org/2000/svg" fill="none" width="38" height="38" viewBox="0 0 38 38"><defs><clipPath id="a"><rect x="10" y="10" width="18" height="18" rx="0"/></clipPath></defs><rect width="38" height="38" rx="19" fill="#F5F7F9"/><g clip-path="url(#a)" fill-rule="evenodd" fill="#303133"><path d="m20.732 17.86 1.596-1.823a1.212 1.212 0 1 1-1.595 1.823Zm-5.06-1.823 1.596 1.824a1.212 1.212 0 1 1-1.595-1.823Z"/><path d="M20.462 18.929 19 22.097l-1.462-3.168-3.55-4.057-6.395-4.605 7.97 1.993L19 11.744l3.437.516 7.97-1.993-6.395 4.605-3.55 4.057Zm2.872-4.801-3.72 4.25-.03.066L19 19.711l-.615-1.332-3.72-4.251-2.258-1.626 3.107.777L19 12.756l3.486.523 3.107-.777-2.259 1.626Z"/><path d="m11.996 18.595-1.79 1.97.5 2.001-.489.61.576 2.589 2.514-1.257.359.956 2.4 1.441.604-.905.427.426 1.903.846 1.903-.846.427-.426.604.905 2.4-1.44.36-.957 2.514 1.257.575-2.588-.489-.611.5-2.001-1.79-1.97v-3.383l3.431-4.805-7.003 1.751L19 11.643l-3.432.515-7.003-1.75 3.431 4.804v3.383Zm14.392 2.65.087-.348-1.671-1.838v-4.232l1.76-2.465-4.073 1.018L19 12.857l-3.49.523-4.075-1.018 1.761 2.465v4.232l-1.67 1.838.086.347 2.813-1.406-2.912 3.64.118.526 2.331-1.166.68 1.813 1.06.636.782-1.171 1.304 1.304 1.212.539 1.212-.539 1.304-1.304.781 1.171 1.06-.636.68-1.813 2.332 1.166.118-.527-2.912-3.64 2.813 1.407Z"/></g></svg>