<svg xmlns="http://www.w3.org/2000/svg" fill="none" width="38" height="38" viewBox="0 0 38 38"><defs><clipPath id="a"><rect x="10" y="10" width="18" height="18" rx="0"/></clipPath></defs><rect width="38" height="38" rx="19" fill="#F5F7F9"/><g clip-path="url(#a)"><path d="M25 19a6 6 0 0 1-6 6v1.5a7.5 7.5 0 0 0 7.5-7.5H25Zm-6 6a6 6 0 0 1-6-6h-1.5a7.5 7.5 0 0 0 7.5 7.5V25Zm-6-6a6 6 0 0 1 6-6v-1.5a7.5 7.5 0 0 0-7.5 7.5H13Zm6-6a6 6 0 0 1 6 6h1.5a7.5 7.5 0 0 0-7.5-7.5V13Zm1.5 6c0 1.806-.245 3.41-.62 4.536-.19.567-.398.972-.593 1.22a.928.928 0 0 1-.226.218.223.223 0 0 1-.05.024L19 25v1.5c.639 0 1.128-.39 1.465-.816.343-.436.62-1.02.838-1.674.438-1.317.697-3.088.697-5.01h-1.5ZM19 25l-.011-.002a.223.223 0 0 1-.05-.024.928.928 0 0 1-.226-.219c-.195-.247-.403-.652-.592-1.22-.376-1.125-.621-2.73-.621-4.535H16c0 1.922.259 3.693.697 5.01.219.655.495 1.238.838 1.674.337.427.826.816 1.465.816V25Zm-1.5-6c0-1.806.245-3.41.62-4.536.19-.567.398-.972.593-1.22a.927.927 0 0 1 .226-.218.222.222 0 0 1 .05-.024L19 13v-1.5c-.639 0-1.128.39-1.465.816-.343.436-.62 1.02-.838 1.674C16.26 15.307 16 17.078 16 19h1.5Zm1.5-6 .011.002a.222.222 0 0 1 .05.024c.052.032.13.097.226.219.195.247.403.652.592 1.22.376 1.126.621 2.73.621 4.535H22c0-1.922-.259-3.693-.697-5.01-.219-.655-.495-1.238-.838-1.674-.337-.427-.826-.816-1.465-.816V13Zm-6.75 6.75h13.5v-1.5h-13.5v1.5Z" fill="#303133"/></g></svg>