<svg xmlns="http://www.w3.org/2000/svg" fill="none" width="38" height="38" viewBox="0 0 38 38"><defs><clipPath id="a"><rect x="10" y="10" width="18" height="18" rx="0"/></clipPath></defs><rect width="38" height="38" rx="19" fill="#F5F7F9"/><g clip-path="url(#a)" fill-rule="evenodd" fill="#303133"><path d="M11.5 13.47v4.04q0 3.43 2.005 6.211 2.006 2.782 5.259 3.866.115.038.237.038.122 0 .237-.038 3.253-1.084 5.257-3.865 2.005-2.781 2.005-6.21v-4.041q0-.06-.01-.12t-.028-.117q-.02-.058-.048-.111-.028-.054-.064-.102-.036-.048-.08-.09-.043-.042-.093-.077-.05-.034-.104-.06-.055-.026-.113-.043l-6.746-1.97q-.21-.062-.42-.001l-6.754 1.97q-.058.018-.113.044-.054.026-.104.06-.05.035-.093.077-.044.042-.08.09-.036.048-.064.102-.028.053-.048.11-.019.058-.028.118-.01.06-.01.12Zm3.222 9.374Q13 20.456 13 17.511v-3.478l6.003-1.752L25 14.033v3.48q0 2.944-1.721 5.332Q21.63 25.13 19 26.08q-2.63-.95-4.279-3.237Z"/><path d="M23.28 17.28q.106-.105.163-.243.057-.138.057-.287 0-.15-.057-.287-.057-.138-.163-.243-.105-.106-.243-.163Q22.899 16 22.75 16q-.15 0-.287.057-.138.057-.243.163l-3.97 3.97-2.095-2.095q-.105-.106-.243-.163-.138-.057-.287-.057-.15 0-.287.057-.138.057-.243.163-.106.105-.163.243-.057.138-.057.287 0 .15.057.287.057.138.163.243l2.625 2.625q.105.106.243.163.138.057.287.057.15 0 .287-.057.138-.057.243-.163l4.5-4.5Z"/></g></svg>