<svg xmlns="http://www.w3.org/2000/svg" fill="none" width="38" height="38" viewBox="0 0 38 38"><defs><clipPath id="a"><rect x="10" y="10" width="18" height="18" rx="0"/></clipPath></defs><rect width="38" height="38" rx="19" fill="#F5F7F9"/><g clip-path="url(#a)"><path d="M15.48 24.415q.104.101.24.156.134.054.28.054h.014q.149-.003.286-.062.136-.06.24-.167.101-.105.156-.24.054-.135.054-.281v-.014q-.003-.149-.062-.286-.06-.136-.167-.24l-3.96-3.817 3.979-4.122q.1-.105.155-.24.055-.135.055-.281v-.013q-.003-.15-.062-.286-.06-.137-.167-.24-.105-.102-.24-.156-.135-.055-.281-.055h-.013q-.15.003-.286.062-.137.06-.24.167l-4.5 4.662h-.001q-.104.108-.158.247-.055.139-.052.288.003.149.062.286.06.137.167.24l4.5 4.338Zm6-1.08q-.11.106-.17.247-.06.14-.06.293v.025q.005.14.06.267.053.128.15.229.104.107.24.167.137.06.286.062h.036l4.999-4.548q.107-.104.167-.24.06-.137.062-.286.003-.15-.052-.288-.055-.139-.158-.246l-4.5-4.663q-.106-.11-.247-.17-.14-.059-.293-.059h-.026q-.139.005-.267.06-.128.054-.228.15-.11.106-.17.247-.059.14-.059.293v.026q.005.139.06.267.054.128.15.228l3.98 4.122-3.96 3.817Zm-4.344 3.035q-.011.065-.011.13v.016q.005.228.136.415.086.122.212.202.126.08.273.106.064.011.129.011h.007q.066 0 .13-.013.064-.011.125-.034.061-.023.117-.056.057-.033.106-.075.05-.042.092-.092.041-.05.074-.107.032-.057.054-.118.023-.061.034-.126l2.625-15q.011-.064.011-.129v-.016q-.005-.228-.136-.415-.086-.122-.212-.202-.126-.08-.273-.106-.064-.011-.129-.011h-.007q-.066 0-.13.013-.064.011-.125.034-.061.023-.117.056-.057.033-.106.075-.05.042-.092.092-.041.05-.074.107-.032.057-.054.118-.023.061-.034.126l-2.625 15Z" fill-rule="evenodd" fill="#303133"/></g></svg>