<svg xmlns="http://www.w3.org/2000/svg" fill="none" width="38" height="38" viewBox="0 0 38 38"><defs><clipPath id="a"><rect x="10" y="10" width="18" height="18" rx="0"/></clipPath><clipPath id="b"><rect x="10" y="11" width="17" height="17" rx="0"/></clipPath><mask id="c" style="mask-type:alpha" maskUnits="userSpaceOnUse"><rect x="10.003" y="11" width="16.997" height="17" rx="0" fill="#FFF"/></mask><mask id="d" style="mask-type:alpha" maskUnits="userSpaceOnUse"><rect x="10.003" y="11" width="16.997" height="17" rx="0" fill="#FFF"/></mask></defs><rect width="38" height="38" rx="19" fill="#F5F7F9"/><g clip-path="url(#a)"><g clip-path="url(#b)"><g mask="url(#c)"><path d="M11.502 12.329c.343-.344.86-.424 1.287-.213l.114.065 2.376 1.563c.262.172.438.447.49.754l.015.132.047.962 1.034 1.106a.5.5 0 0 1 .035.639l-.06.067a.5.5 0 0 1-.64.036l-.067-.06-1.124-1.206a.573.573 0 0 1-.159-.294l-.01-.084-.054-1.116a.136.136 0 0 0-.028-.076l-.029-.026-2.373-1.56a.115.115 0 0 0-.111-.008l-.032.022-1.175 1.192a.139.139 0 0 0-.035.125l.017.042 1.54 2.41a.121.121 0 0 0 .056.048l.035.009 1.101.054a.583.583 0 0 1 .3.103l1.255 1.102a.499.499 0 0 1-.588.803l-.073-.054-1.094-.963-.954-.048a1.116 1.116 0 0 1-.802-.406l-.08-.11-1.538-2.413a1.138 1.138 0 0 1 .062-1.303l.085-.098 1.18-1.197-.003.001Zm8.964 8.807a.5.5 0 0 1 .637-.062l.07.057.255.253.025-.022c.381-.374.98-.41 1.405-.087l.1.087 2.725 2.69c.389.385.416.993.083 1.41l-.084.093-2.137 2.11a1.07 1.07 0 0 1-1.4.094l-.108-.092-2.723-2.69a1.055 1.055 0 0 1-.08-1.414l.094-.104-.117-.116a.499.499 0 0 1-.062-.637l.058-.07a.5.5 0 0 1 .636-.06l.07.056.477.471a.499.499 0 0 1 .06.641l-.06.07-.373.37a.055.055 0 0 0-.018.041l.004.023.014.02 2.723 2.687a.07.07 0 0 0 .052.02l.027-.005.023-.015 2.138-2.11a.06.06 0 0 0 .016-.056l-.016-.028-2.723-2.688a.075.075 0 0 0-.07-.018l-.032.018-.374.37a.5.5 0 0 1-.634.055l-.07-.056-.606-.6a.5.5 0 0 1-.004-.706h-.001Z" fill="#303133"/></g><g mask="url(#d)"><path d="M22.438 11.001a4.535 4.535 0 0 0-3.217 1.33l-.16.169a4.546 4.546 0 0 0-.82 4.8l.025.058-7.687 7.07c-.761.662-.774 1.85-.025 2.598l.4.4c.34.35.811.55 1.304.552l.167-.008c.44-.04.845-.242 1.14-.579l7.067-7.67.158.066a4.56 4.56 0 0 0 4.876-1.021 4.541 4.541 0 0 0 .962-5.006.858.858 0 0 0-.796-.518l-.111.008a.865.865 0 0 0-.496.246l-1.765 1.762-.725-.724 1.764-1.762a.864.864 0 0 0-.266-1.404 4.577 4.577 0 0 0-1.795-.367Zm0 .999.24.008c.32.021.635.085.938.191l.03.012-1.86 1.86a.655.655 0 0 0 0 .927l1.21 1.21a.66.66 0 0 0 .463.193l.104-.01a.649.649 0 0 0 .36-.184l1.863-1.86.07.211a3.542 3.542 0 0 1-.566 3.123 3.56 3.56 0 0 1-4.537.99l-.342-.184-7.592 8.238a.727.727 0 0 1-.556.255.85.85 0 0 1-.6-.256l-.402-.403c-.347-.347-.341-.865-.015-1.149l8.258-7.592-.186-.342a3.548 3.548 0 0 1 2.902-5.232l.217-.006Z" fill="#303133"/></g></g></g></svg>