<svg xmlns="http://www.w3.org/2000/svg" fill="none" width="14.897" height="16.483" viewBox="0 0 14.897 16.483"><path d="m7.448 2.834 5.29 5.352.003.004q.063.063.136.113l1.392-.249q.05-.071.086-.15.037-.079.06-.163.022-.084.03-.17.007-.087 0-.174-.008-.086-.03-.17-.022-.085-.059-.164-.036-.078-.086-.15-.05-.071-.11-.133L8.373.925Q7.991.538 7.448.538q-.542 0-.924.387L.737 6.78q-.069.07-.123.151-.054.082-.091.173-.037.09-.056.187-.019.096-.019.195 0 .098.02.194t.057.187q.038.09.092.172.055.081.124.15v.001l.005.004q.141.14.325.215.184.075.383.074.198-.002.38-.078t.322-.215l.004-.004 5.288-5.352Z" fill-rule="evenodd" fill="currentColor"/><path d="M6.448 1.483v14q0 .098.02.195.019.096.057.187.037.091.092.173.055.082.124.152.07.07.152.124.082.055.173.093.09.037.187.056.097.02.195.02.099 0 .196-.02.096-.019.187-.056.091-.038.173-.093.082-.055.152-.124.07-.07.124-.152.055-.082.092-.173.038-.09.057-.187.02-.097.02-.195v-14q0-.099-.02-.195-.019-.097-.057-.188-.037-.091-.092-.173-.055-.082-.124-.151-.07-.07-.152-.125Q7.922.596 7.831.56q-.09-.04-.187-.058-.097-.02-.196-.02-.098 0-.195.02-.096.02-.187.057-.091.037-.173.092-.082.055-.152.125-.07.07-.124.151-.055.082-.092.173-.038.091-.057.188-.02.096-.02.195Z" fill-rule="evenodd" fill="currentColor"/></svg>