<svg xmlns="http://www.w3.org/2000/svg" fill="none" viewBox="0 0 14.897 16.483"><path d="m7.448 13.648 5.29-5.35.003-.005q.063-.063.136-.114l1.392.25q.05.07.086.15.037.079.06.163.022.084.03.17.007.087 0 .174-.008.086-.03.17-.022.084-.059.163-.036.08-.086.15-.05.072-.11.134l-5.787 5.855q-.382.386-.925.386-.542 0-.924-.386L.737 9.703q-.069-.07-.123-.152Q.56 9.47.523 9.38q-.037-.091-.056-.187-.019-.097-.019-.195t.02-.194q.02-.096.057-.187.038-.09.092-.172.055-.082.124-.151l.005-.004q.141-.14.325-.215.184-.075.383-.074.198.001.38.077t.322.216l.004.004 5.288 5.351Z" fill-rule="evenodd" fill="currentColor"/><path d="M6.448 15V1q0-.099.02-.195.019-.097.057-.188.037-.09.092-.173.055-.081.124-.151.07-.07.152-.124.082-.055.173-.093.09-.038.187-.057Q7.35 0 7.448 0q.099 0 .196.02.096.018.187.056.091.038.173.093.082.054.152.124.07.07.124.151.055.082.092.173.038.091.057.188.02.096.02.195v14q0 .098-.02.195-.019.097-.057.188-.037.09-.092.173-.055.081-.124.151-.07.07-.152.124-.082.055-.173.093-.09.038-.187.057-.097.019-.196.019-.098 0-.195-.02-.096-.018-.187-.056-.091-.038-.173-.093-.082-.054-.152-.124-.07-.07-.124-.151-.055-.082-.092-.173-.038-.091-.057-.188-.02-.097-.02-.195Z" fill-rule="evenodd" fill="currentColor"/></svg>