<svg xmlns="http://www.w3.org/2000/svg" fill="none" viewBox="0 0 38 38"><path d="M37.431 23.596C34.894 33.775 24.584 39.97 14.405 37.431 4.229 34.894-1.965 24.584.573 14.406 3.11 4.226 13.42-1.97 23.596.569 33.775 3.106 39.969 13.417 37.43 23.596Z" fill="#F7931A"/><path d="M27.38 16.293c.378-2.529-1.547-3.888-4.179-4.795l.854-3.425-2.085-.52-.831 3.336a86.251 86.251 0 0 0-1.67-.393l.837-3.357-2.084-.52-.854 3.424a68.82 68.82 0 0 1-1.332-.313l.003-.01L13.164 9l-.555 2.227s1.547.355 1.514.377c.845.21.997.77.972 1.212l-.973 3.902c.058.015.134.036.217.07l-.06-.015a14.176 14.176 0 0 0-.16-.04L12.754 22.2c-.103.257-.365.642-.955.496.02.03-1.516-.378-1.516-.378L9.25 24.704l2.713.676c.298.075.591.152.882.227l.605.157-.863 3.464 2.083.52.854-3.428a78.44 78.44 0 0 0 1.662.431l-.852 3.412 2.085.52.863-3.458c3.555.672 6.228.401 7.354-2.815.906-2.589-.046-4.082-1.916-5.056 1.362-.314 2.388-1.21 2.662-3.06v-.001Zm-4.763 6.68c-.591 2.375-4.31 1.393-6.01.944-.154-.04-.29-.077-.407-.106l1.145-4.59c.142.036.316.075.512.12 1.76.394 5.365 1.203 4.76 3.632ZM18.21 17.21c1.419.378 4.513 1.204 5.052-.955.55-2.208-2.457-2.873-3.925-3.199a14.024 14.024 0 0 1-.43-.098l-1.038 4.162.341.09Z" fill-rule="evenodd" fill="#FFF"/></svg>