<svg xmlns="http://www.w3.org/2000/svg" fill="none" width="14" height="20" viewBox="0 0 14 20"><path d="M14 1v9q0 .098-.02.195-.018.097-.056.188-.038.09-.093.173-.054.081-.124.151-.07.07-.151.124-.082.055-.173.093-.091.038-.188.057Q13.098 11 13 11t-.195-.02q-.097-.018-.188-.056-.09-.038-.173-.093-.081-.054-.151-.124-.07-.07-.124-.151-.055-.082-.093-.173-.038-.091-.057-.188Q12 10.098 12 10V1q0-.098.02-.195.018-.097.056-.188.038-.09.093-.173.054-.081.124-.151.07-.07.151-.124.082-.055.173-.093.091-.038.188-.057Q12.902 0 13 0t.195.02q.097.018.188.056.09.038.173.093.081.054.151.124.07.07.124.151.055.082.093.173.038.091.057.188Q14 .902 14 1ZM2 19v-9q0-.098-.02-.195-.018-.097-.056-.188-.038-.09-.093-.173-.054-.081-.124-.151-.07-.07-.151-.124-.082-.055-.173-.093-.091-.038-.188-.057Q1.098 9 1 9t-.195.02q-.097.018-.188.056-.09.038-.173.093-.081.054-.151.124-.07.07-.124.151-.055.082-.093.173-.038.091-.057.188Q0 9.902 0 10v9q0 .098.02.195.018.097.056.188.038.09.093.173.054.081.124.151.07.07.151.124.082.055.173.093.091.038.188.057Q.902 20 1 20t.195-.02q.097-.018.188-.056.09-.038.173-.093.081-.054.151-.124.07-.07.124-.151.055-.082.093-.173.038-.091.057-.188Q2 19.098 2 19Z" fill-rule="evenodd" fill="currentColor"/><path d="M11.95 5.05Q9.9 3 7 3v2q2.071 0 3.536 1.464Q12 7.93 12 10h2q0-2.9-2.05-4.95Zm-8.486 8.486Q2 12.07 2 10H0q0 2.9 2.05 4.95Q4.1 17 7 17v-2q-2.071 0-3.536-1.464Z" fill-rule="evenodd" fill="currentColor"/><rect x="6" y="3" width="2" height="2" rx="1" fill="currentColor"/><rect x="6" y="15" width="2" height="2" rx="1" fill="currentColor"/></svg>