<svg xmlns="http://www.w3.org/2000/svg" fill="none" width="16.25" height="13" viewBox="0 0 16.25 13"><defs><clipPath id="a"><rect width="16.25" height="13" rx="0"/></clipPath></defs><g clip-path="url(#a)" fill="currentColor"><path d="M3.212 2.6q0 .055-.01.109-.011.054-.033.104-.021.051-.052.097-.031.045-.07.084-.04.039-.087.07-.046.03-.098.05-.051.022-.106.033-.055.01-.11.01-.056 0-.111-.01-.055-.011-.106-.032-.052-.021-.098-.052-.047-.03-.086-.069-.04-.039-.07-.084-.032-.046-.053-.097-.022-.05-.032-.104-.011-.054-.011-.109t.01-.109q.011-.053.033-.104.021-.05.052-.096.031-.046.07-.085.04-.039.087-.07.046-.03.098-.05.051-.022.106-.032.055-.011.11-.011.056 0 .111.01.055.011.106.032.052.021.098.052.047.03.086.07.04.038.07.084.032.045.053.096.022.05.032.104.011.054.011.11Zm2.268 0q0 .055-.011.109t-.032.104q-.022.051-.053.097-.03.045-.07.084-.04.039-.086.07-.047.03-.098.05-.052.022-.107.033-.054.01-.11.01t-.11-.01q-.056-.011-.107-.032-.052-.021-.098-.052-.047-.03-.086-.069-.04-.039-.07-.084-.032-.046-.053-.097-.021-.05-.032-.104-.011-.054-.011-.109t.01-.109q.012-.053.033-.104.021-.05.052-.096.031-.046.071-.085.04-.039.086-.07.046-.03.098-.05.051-.022.106-.032.055-.011.11-.011.057 0 .111.01.055.011.107.032.051.021.098.052.046.03.086.07.04.038.07.084.031.045.053.096.02.05.032.104.01.054.01.11Zm2.267 0q0 .055-.01.109-.012.054-.033.104-.021.051-.052.097-.031.045-.07.084-.04.039-.087.07-.046.03-.098.05-.051.022-.106.033-.055.01-.11.01-.056 0-.111-.01-.055-.011-.107-.032-.051-.021-.098-.052-.046-.03-.085-.069-.04-.039-.07-.084-.032-.046-.053-.097-.022-.05-.033-.104-.01-.054-.01-.109t.01-.109q.011-.053.033-.104.021-.05.052-.096.031-.046.07-.085.04-.039.086-.07.047-.03.098-.05.052-.022.107-.032.055-.011.11-.011.056 0 .111.01.055.011.106.032.052.021.098.052.047.03.086.07.04.038.07.084.032.045.053.096.021.05.032.104.011.054.011.11Z"/><path d="M14.171 0H2.08C1.527 0 .999.215.609.598.219.982 0 1.501 0 2.043v8.914c0 .542.219 1.062.609 1.445s.918.598 1.47.598H14.17c.552 0 1.08-.215 1.47-.598.39-.383.609-.903.609-1.445V2.043c0-.542-.22-1.061-.609-1.445A2.097 2.097 0 0 0 14.171 0ZM2.08 1.114h12.09c.251 0 .491.098.668.272.178.174.277.41.277.657v8.914a.92.92 0 0 1-.277.657.953.953 0 0 1-.668.272H2.08a.953.953 0 0 1-.669-.272.921.921 0 0 1-.276-.657V2.043c0-.246.1-.483.277-.657a.954.954 0 0 1 .668-.272Z"/><rect x=".756" y="4.271" width="14.738" height="1.114" rx="0"/></g></svg>