<svg xmlns="http://www.w3.org/2000/svg" fill="none" width="13.333" height="15" viewBox="0 0 13.333 15"><path d="m8.68 3.266.725.155-.725-.155Zm-4.027 0-.725.155.725-.155ZM9.56 5.374l.316-.678-.316.678Zm-.925-1.889L7.91 3.33l.725.155Zm-4.861 1.89-.317-.68.317.68Zm.925-1.89.724-.155-.724.155Zm6.42 2.635-.317.678.317-.678Zm-8.904 0 .316.678-.316-.678Zm5.933 8.13c0 .414.332.75.74.75.41 0 .742-.336.742-.75H8.148Zm1.482-3a.745.745 0 0 0-.741-.75c-.41 0-.74.336-.74.75h1.48Zm-5.926 3c0 .414.331.75.74.75.41 0 .741-.336.741-.75H3.704ZM5.185 12a.745.745 0 0 0-.74-.75.745.745 0 0 0-.741.75h1.481Zm7.408-2.25c.409 0 .74-.336.74-.75a.745.745 0 0 0-.74-.75v1.5ZM.74 8.25C.33 8.25 0 8.586 0 9s.332.75.74.75v-1.5Zm10.643 5.25H1.95V15h9.435v-1.5Zm-9.903-.474v-4.55H0v4.55h1.481Zm10.37-4.55v4.55h1.482v-4.55h-1.481ZM2.53 6.798l1.56-.746-.634-1.356-1.559.746.633 1.356Zm6.712-.746 1.56.746.632-1.356-1.559-.746-.633 1.356ZM7.956 3.11l-.046.22 1.45.31.045-.219-1.45-.31Zm-2.533.22-.045-.22-1.45.311.046.22 1.45-.31ZM6.667 1.5c.837 0 1.462.78 1.289 1.61l1.45.311C9.773 1.659 8.445 0 6.665 0v1.5Zm0-1.5C4.887 0 3.56 1.659 3.928 3.421l1.45-.31C5.204 2.28 5.829 1.5 6.667 1.5V0Zm3.21 4.696a.953.953 0 0 1-.518-1.055l-1.45-.31a2.458 2.458 0 0 0 1.334 2.721l.633-1.356ZM4.09 6.052A2.458 2.458 0 0 0 5.423 3.33l-1.449.31a.953.953 0 0 1-.517 1.056l.633 1.356Zm9.243 2.423a3.358 3.358 0 0 0-1.898-3.033l-.633 1.356c.641.307 1.05.96 1.05 1.677h1.481Zm-11.852 0c0-.717.41-1.37 1.05-1.677l-.633-1.356A3.359 3.359 0 0 0 0 8.475h1.481ZM1.95 13.5a.47.47 0 0 1-.468-.474H0C0 14.116.873 15 1.95 15v-1.5Zm9.435 1.5c1.077 0 1.95-.884 1.95-1.974h-1.482a.47.47 0 0 1-.468.474V15Zm-1.754-.75v-3H8.148v3H9.63Zm-4.445 0V12H3.704v2.25h1.481Zm7.408-6H.74v1.5h11.852v-1.5Z" fill="currentColor"/></svg>