<svg xmlns="http://www.w3.org/2000/svg" fill="none" width="16" height="16" viewBox="0 0 16 16"><defs><mask id="b" style="mask-type:alpha" maskUnits="userSpaceOnUse"><rect width="16" height="16" rx="0" fill="currentColor"/></mask><mask id="c" style="mask-type:alpha" maskUnits="userSpaceOnUse"><rect width="16" height="16" rx="0" fill="currentColor"/></mask><clipPath id="a"><rect width="16" height="16" rx="0"/></clipPath></defs><g clip-path="url(#a)"><path d="M14.926 8.353H1.17a.557.557 0 0 1-.557-.556c0-.306.25-.556.557-.556h13.756c.306 0 .556.25.556.556a.543.543 0 0 1-.556.556Z" fill="currentColor"/><path d="M7.429 14.863V1.13a.557.557 0 0 1 1.113 0v13.732a.557.557 0 0 1-1.113 0Z" fill="currentColor"/><g mask="url(#b)"><path d="M7.997 15.973C3.589 15.973 0 12.389 0 7.989S3.59.006 7.997.006s7.996 3.583 7.996 7.983c0 4.4-3.59 7.984-7.996 7.984Zm0-14.879C4.19 1.094 1.09 4.19 1.09 7.99s3.101 6.895 6.907 6.895c3.805 0 6.906-3.096 6.906-6.895 0-3.798-3.101-6.895-6.906-6.895Z" fill="currentColor"/></g><g mask="url(#c)"><path d="M6.815 15.713C-.409 6.845 6.805.291 6.872.223l.727.816-.363-.408.363.408c-.272.238-6.497 5.942.057 13.993l-.84.681Zm2.556 0-.84-.68c6.554-8.04.33-13.744.057-13.994l.726-.816c.069.068 7.282 6.634.057 15.49Z" fill="currentColor"/></g></g></svg>