<svg xmlns="http://www.w3.org/2000/svg" fill="none" viewBox="0 0 22 22"><defs><clipPath id="a"><rect width="22" height="22" rx="0"/></clipPath></defs><g clip-path="url(#a)" fill-rule="evenodd" fill="currentColor"><path d="M18.021 14.83h-1.997q-.074 0-.147.014-.072.014-.14.042-.069.029-.13.07-.061.04-.114.093-.052.052-.093.114-.04.061-.07.13-.027.068-.042.14-.014.072-.014.146t.014.147q.015.072.043.14.028.069.07.13.04.061.092.114.053.052.114.093.061.041.13.07.068.027.14.042.073.014.147.014h1.997q.808 0 1.38-.568.573-.57.573-1.378V4.02q0-.808-.573-1.378-.572-.568-1.38-.568H7.597q-.807 0-1.38.568-.573.57-.573 1.378v1.964q0 .074.015.146.014.072.043.14.028.069.069.13.04.062.093.114.052.052.114.093.061.041.13.07.068.028.14.042.073.015.146.015.074 0 .147-.015.072-.014.14-.042.069-.029.13-.07.062-.04.114-.093.052-.052.093-.114.041-.061.07-.13.028-.068.042-.14.014-.072.014-.146V4.019q0-.184.132-.314.132-.132.321-.132h10.424q.19 0 .322.132.131.13.131.314v10.364q0 .184-.131.314-.133.132-.322.132Z"/><path d="M16.356 17.981V7.617q0-.808-.574-1.378-.572-.568-1.38-.568H3.98q-.808 0-1.38.568-.573.57-.573 1.378V17.98q0 .808.573 1.378.572.568 1.38.568h10.424q.807 0 1.38-.568.573-.57.573-1.378ZM14.724 7.303q.132.13.132.314V17.98q0 .184-.132.314-.132.132-.321.132H3.979q-.19 0-.322-.132-.131-.13-.131-.314V7.617q0-.184.13-.314.134-.132.323-.132h10.424q.189 0 .321.132Z"/></g></svg>