<svg xmlns="http://www.w3.org/2000/svg" fill="none" width="12" height="13.334" viewBox="0 0 12 13.334"><path d="M.667 2a.667.667 0 0 0 0 1.334V2Zm10.666 1.334a.667.667 0 1 0 0-1.334v1.334ZM8.486 2.126l-.632.21.632-.21Zm-.452.752A.667.667 0 0 0 9.3 2.456l-1.265.422Zm-5.333-.422a.667.667 0 1 0 1.265.422L2.7 2.456Zm.813-.33-.633-.211.633.21ZM7.527.759l.244-.62-.244.62Zm.535.386-.512.428.512-.428ZM4.473.759l.244.62-.244-.62Zm-.535.386.512.428-.512-.428Zm6.729 1.522a.667.667 0 0 0-1.334 0h1.334Zm-8 0a.667.667 0 0 0-1.334 0h1.334Zm.425 9.782.303-.594-.303.594Zm-.874-.874-.594.303.594-.303Zm7.564 0-.594-.303.594.303Zm-.874.874-.303-.594.303.594ZM8 5.334a.667.667 0 0 0-1.333 0H8ZM6.667 10A.667.667 0 1 0 8 10H6.667ZM5.333 5.334a.667.667 0 0 0-1.333 0h1.333ZM4 10a.667.667 0 1 0 1.333 0H4ZM.667 3.334h10.666V2H.667v1.334Zm4.87-2h.925V0h-.924v1.334Zm2.317 1.002.18.542L9.3 2.456l-.18-.541-1.265.421Zm-3.888.542.18-.542-1.265-.421-.18.541 1.265.422Zm2.496-1.544c.61 0 .732.01.821.046L7.771.139C7.39-.011 6.958 0 6.462 0v1.334Zm2.657.58c-.157-.47-.283-.882-.546-1.197l-1.023.856c.062.073.11.185.304.763l1.265-.421ZM7.283 1.38a.65.65 0 0 1 .267.193L8.573.717A2 2 0 0 0 7.771.14l-.488 1.24ZM5.538 0c-.496 0-.928-.01-1.309.14l.488 1.24c.09-.034.21-.045.82-.045V0ZM4.146 2.336c.193-.578.242-.69.304-.763L3.427.717c-.263.315-.389.727-.546 1.198l1.265.421ZM4.23.14a2 2 0 0 0-.802.578l1.023.856a.667.667 0 0 1 .267-.193L4.229.139Zm5.104 2.528v6.8h1.334v-6.8H9.333ZM6.8 12H5.2v1.334h1.6V12ZM2.667 9.467v-6.8H1.333v6.8h1.334ZM5.2 12c-.571 0-.96 0-1.26-.025-.292-.024-.441-.067-.545-.12l-.606 1.188c.324.165.668.23 1.043.261.367.03.819.03 1.368.03V12ZM1.333 9.467c0 .549 0 1 .03 1.368.03.374.096.719.261 1.042l1.188-.605c-.053-.104-.096-.254-.12-.546-.025-.3-.025-.688-.025-1.26H1.333Zm2.062 2.388a1.333 1.333 0 0 1-.583-.583l-1.188.605c.256.502.664.91 1.165 1.166l.606-1.188Zm5.938-2.388c0 .57 0 .96-.025 1.26-.024.291-.067.44-.12.545l1.188.605c.165-.323.23-.668.261-1.042.03-.367.03-.82.03-1.368H9.333ZM6.8 13.334c.55 0 1 0 1.368-.03.375-.03.72-.096 1.043-.261l-.606-1.188c-.104.053-.253.096-.546.12C7.76 12 7.371 12 6.8 12v1.334Zm2.388-2.062a1.335 1.335 0 0 1-.583.583l.606 1.188c.501-.256.91-.664 1.165-1.165l-1.188-.606ZM6.667 5.334V10H8V5.334H6.667ZM4 5.334V10h1.333V5.334H4Z" fill="currentColor"/></svg>