<?xml version="1.0" standalone="no"?><!DOCTYPE svg PUBLIC "-//W3C//DTD SVG 1.1//EN" "http://www.w3.org/Graphics/SVG/1.1/DTD/svg11.dtd"><svg t="1765525377767" class="icon" viewBox="0 0 1024 1024" version="1.1" xmlns="http://www.w3.org/2000/svg" p-id="5203" xmlns:xlink="http://www.w3.org/1999/xlink" width="200" height="200"><path d="M17.12 510.88a502.24 489.76 90 1 0 979.52 0 502.24 489.76 90 1 0-979.52 0Z" fill="#988430" p-id="5204"></path><path d="M31.84 510.24c-6.4-262.4 215.84-489.6 478.08-487.04 254.72 2.56 475.84 218.4 472 496.32-3.52 258.56-213.44 485.76-488.48 479.04-250.4-6.24-466.24-219.2-461.6-488.32z" fill="#7A6A2A" p-id="5205"></path><path d="M44.8 512a479.2 467.36 90 1 0 934.72 0 479.2 467.36 90 1 0-934.72 0Z" fill="#BA9F32" p-id="5206"></path><path d="M201.44 715.68c-3.84-7.2-4.64-13.28 0.48-21.12 8.48-12.64 9.28-27.84 10.08-42.72 8.32 0.48 8.32 8.32 11.68 13.28 7.84 27.52 16.96 54.4 34.24 77.76a30.24 30.24 0 0 1 1.76 7.52c2.56 14.72-4.8 31.04 6.72 44.48 16.96 6.88 35.04-0.16 52 4.32 0.96 0.32 2.72 0.8 2.72 1.6 2.56 23.2 5.28 46.4 11.2 69.12 1.6 6.08-2.08 11.68-7.52 15.36-12 8.32-27.04 12.8-34.4 27.04-4.48 6.56-7.36 15.84-18.56 10.72a473.28 473.28 0 0 1-66.56-49.6c-9.44-8.32-16.32-15.2-30.56-29.92 8.64-20.64 19.52-41.92 20.32-64.8a30.72 30.72 0 0 1 0-19.68c-0.64-8.64 3.36-16.16 6.56-23.84a159.2 159.2 0 0 0-0.16-19.52z" fill="#E4CA7A" p-id="5207"></path><path d="M705.6 925.76a129.6 129.6 0 0 1 40.32-43.52c1.76-3.52 3.52-7.2 5.44-10.72 8-18.24 24.16-30.08 35.84-45.44a74.24 74.24 0 0 0 15.52-39.2c2.24-22.4 1.28-45.6 12-66.56 4.96-6.4 3.68-14.88 6.4-21.92 1.76-4.48 2.08-10.56 8.32-11.04s3.52 8 7.04 10.88c6.72 47.84 6.88 152.16 6.88 152.16-32 32.8-66.88 61.28-106.72 81.92-0.48 0.32-25.6 1.92-31.04-6.56z" fill="#B98F40" p-id="5208"></path><path d="M705.6 925.28c10.08 1.92 22.08-8.64 30.56 7.36-52.48 29.76-112.32 50.24-184.16 56.8 0-2.72 6.72-10.88 12.16-10.72s11.68-1.92 15.04-6.08c14.08-17.28 35.2-16.96 54.08-22.72 4-1.28 7.84-2.08 8 4.32s3.2 3.36 5.44 2.08c19.04-11.52 43.52-12.8 58.88-31.04z" fill="#D1B96A" p-id="5209"></path><path d="M428.32 196.48l70.4 13.12c26.56-4.96 53.44-5.12 80.32-4.64 4.96 0.16 9.92 0.8 14.08 3.84 6.24 5.44 2.24 10.72-0.8 15.52s-5.12 10.72-8.64 15.36a9.6 9.6 0 0 1-6.88 1.6c-8-4.48-16.16-5.76-24.32-0.48a5.28 5.28 0 0 1-4.16-0.16c-2.72-2.24-4.48-6.08-8.8-6.08-10.72-0.48-21.6-0.32-32.32 0-4.48 0-8.64 1.92-13.12 2.56a138.4 138.4 0 0 1-14.08 0.8c-19.36-0.64-38.72 1.6-58.08-1.28-11.04-10.08-20-23.2-36.48-25.6-2.4-8.16 6.08-9.12 8.96-13.76 11.2-6.72 22.4-13.12 33.92-0.8z" fill="#D1A73E" p-id="5210"></path><path d="M428.32 196.48c-11.84-5.28-22.72-2.08-33.44 3.2a7.36 7.36 0 0 1-7.84 1.28c-14.08-8.8-18.56-22.72-15.84-37.44 3.36-17.92-0.32-33.92-5.92-50.24-1.92-5.6-5.12-11.36-0.48-17.28a59.84 59.84 0 0 1 30.08 30.08c7.04 8.96 8.48 20.32 13.28 30.08s11.52 24.64 22.72 33.44c4.64 3.52-0.16 5.12-2.56 6.88z" fill="#B48634" p-id="5211"></path><path d="M214.08 403.2l-13.28 13.76v-6.72c7.36-37.92 14.72-75.84 37.44-108.16 4.16-5.92 7.04-16.32 18.4-10.24 4.48 15.52 2.4 31.36 1.44 47.2a23.52 23.52 0 0 1-5.28 10.08c-14.56 16.8-29.12 33.76-38.72 54.08z" fill="#EACB73" p-id="5212"></path><path d="M254.4 343.36c-0.16-17.92-0.16-35.84-0.32-53.76-4.8-5.44-2.72-10.88 0.16-16.16 2.24-9.92-2.56-20.8 4.32-30.08 22.88-7.2 45.76-7.84 68.64 0.48a5.28 5.28 0 0 1-0.32 7.68 260.8 260.8 0 0 1-46.24 22.08c-13.12 4.96-19.2 13.12-18.56 27.52s1.92 26.56-1.6 39.52a7.52 7.52 0 0 1-3.68 3.68z" fill="#ECE6D4" p-id="5213"></path><path d="M254.24 273.44c0 5.44-0.16 10.88-0.16 16.16-21.44 21.44-32 48.48-39.52 76.96-4 14.88-6.88 29.92-13.76 43.84-7.04-6.88-0.32-13.92 0.64-20.16 7.04-43.68 18.88-85.44 52.8-116.8z" fill="#A78E33" p-id="5214"></path><path d="M581.92 239.84c4.64 1.12 10.08-0.64 14.24 3.04l-44.32 0.48c-12.8 8.16-27.2 3.36-40.8 4.48-7.2 0.64-14.4 0.16-21.76 0.16h-25.12c-39.52-0.32-79.2 0.32-118.72 0-5.92 0.16-11.84 0.64-17.44-1.28-22.88-7.2-46.4-1.6-69.44-3.36a10.88 10.88 0 0 1-0.32-2.24c4.16-6.24 10.72-4.32 16.48-4.48 16.32-0.32 32.8 0 49.12-0.16a38.08 38.08 0 0 0 5.92-0.96l5.92-0.32h15.04c22.56 0 45.12-1.92 67.68 1.12s41.44 0.16 62.24 0.32c5.28 0 10.4 0.16 15.68-0.16 17.6-0.64 35.52-4.8 52.64 3.2h3.36a22.72 22.72 0 0 1 23.36 0z" fill="#F1E6D0" p-id="5215"></path><path d="M799.04 504c-15.68-31.68-23.84-65.6-29.76-100.16-0.16-7.04-0.48-14.24 3.68-20.48 6.4 8 7.04 17.92 9.76 27.2-1.76 14.72 4.64 27.84 7.2 41.76 0.8 1.44 0.48 3.2 1.12 4.8 0-2.4-0.8-5.12 1.92-7.04a149.28 149.28 0 0 1 6.08 53.92z" fill="#EAE5D5" p-id="5216"></path><path d="M608.8 199.84a36 36 0 0 1-13.12 13.28c-17.12-6.56-34.88-2.4-52.32-3.2-14.88-0.64-29.76-0.16-44.64-0.16 28.8-11.68 59.2-11.04 89.28-9.12 7.2 0.48 13.92-1.44 20.8-0.8z" fill="#A78E33" p-id="5217"></path><path d="M324.64 233.28a6.24 6.24 0 0 1 3.36 6.08l-69.92 1.76c0.16-9.76 7.52-7.68 13.28-7.84 17.92-0.16 35.68 0 53.28 0z" fill="#B79B2B" p-id="5218"></path><path d="M789.44 453.92c-6.4-13.92-13.28-27.68-6.56-43.52l9.92 36.8c-2.4 1.6-1.12 5.12-3.36 6.72z" fill="#EEE8D6" p-id="5219"></path><path d="M812.8 547.52h-3.2c-6.4-4-0.64-12.8-6.56-16.8-2.88-3.36-3.04-6.56 0-9.92 12.8 5.28 5.44 18.08 9.76 26.72z" fill="#AF9334" p-id="5220"></path><path d="M408.32 156.32c-7.52-8.64-9.76-19.68-13.28-30.08 10.24 7.36 11.52 18.88 13.28 30.08z" fill="#A98F33" p-id="5221"></path><path d="M348 143.2c-4.8-4.96-2.24-11.36-3.36-16.96s-2.56-13.28 0.48-19.84l3.04-0.48c-0.16 12.32-0.16 24.8-0.16 37.28z" fill="#DEBF67" p-id="5222"></path><path d="M802.88 520.8v9.92c-1.12 5.6 1.76 12-3.04 16.8-0.32-5.6-0.48-11.2-0.8-16.96s-3.04-11.36 1.12-16.64c0.8 2.24 1.76 4.48 2.72 6.88z" fill="#D3B667" p-id="5223"></path><path d="M200.48 714.88c5.12 6.4 4.64 12.96 0.16 19.52-4.64-6.4-4.48-12.96-0.16-19.52z" fill="#B69B2D" p-id="5224"></path><path d="M672.48 136.32c-1.92 9.28-7.68 14.72-16.8 16.8a47.04 47.04 0 0 1 16.8-16.8z" fill="#AC9235" p-id="5225"></path><path d="M348.48 156.48l-0.48-13.28c-3.36-5.12-0.32-11.36-2.08-16.8l-1.44-0.8 0.48-19.2c-8.16 5.28-1.12 13.44-3.68 19.84h0.32c0 36.64-0.48 73.12-16.8 107.04a6.4 6.4 0 0 0 3.36 6.08h1.28l1.28-0.32c2.72-16.64 15.68-29.44 17.76-46.24a107.36 107.36 0 0 0 0-36.32z" fill="#AD9430" p-id="5226"></path><path d="M800 513.76c-0.32 5.6-0.64 11.2-1.12 16.64-4.48-6.56-4.64-13.12 0.16-19.68a13.12 13.12 0 0 1 0.96 3.04z" fill="#F5EEE1" p-id="5227"></path><path d="M194.08 758.24v19.68q-7.2-9.76 0-19.68z" fill="#B59A2D" p-id="5228"></path><path d="M757.6 332.32c-3.52 12.16 6.56 21.12 8.16 32l7.2 16c6.56-19.84-4.48-34.72-13.6-49.92zM739.36 290.24c3.52 8 1.44 18.56 11.04 23.84l2.24-0.64c-1.12-9.76-3.04-19.2-10.08-26.72zM752.64 313.44c-4.16 8.16-3.52 14.4 6.72 16.64 0.16-6.4-1.44-12.32-6.72-16.64z" fill="#AA9034" p-id="5229"></path><path d="M789.44 453.92a7.2 7.2 0 0 1 3.2-6.72 3.2 3.2 0 0 1 0.32 2.72c-0.32 3.68-0.64 7.2-0.8 11.04-3.84-1.76-2.24-4.8-2.72-7.04z" fill="#F0EBDE" p-id="5230"></path><path d="M177.28 490.4a1.92 1.92 0 0 0-3.04 0l-40.16 10.24c-5.12 3.52-12.64 2.56-16 9.44 6.08-3.68 14.08-0.64 19.52-6.24l39.68-9.92zM147.52 457.28l-13.28-0.32-0.32 0.32c-9.44-6.56-19.68-2.4-29.92-1.6l26.88 4.8h16.64c36.16 11.36 36 6.88 36.48 2.08zM156.48 539.68c2.24-1.28 4.48-2.56 6.88-3.68-0.16 0.16-0.16 0.48-0.32 0.8 7.68-1.44 15.68-3.52 16.48-11.04-6.08 0.64-12.96 2.56-15.68 8.64-3.68-0.48-6.72 0.16-8.32 3.2-5.44 0.64-11.04 2.56-13.76 7.52-6.72 0.8-10.56 3.68-12.48 11.52 6.56-1.28 10.56-3.2 12.16-8.32 6.56-1.12 13.12-3.2 15.04-8.64zM171.84 544.8c-7.68 2.72-8.16 8.48-10.88 12.64 6.56-0.32 8.96-3.84 10.72-9.6 6.56-0.96 8.48-5.76 10.08-12.8-6.56 1.92-8.16 6.08-9.92 9.76zM148.8 566.72c7.36-0.96 9.76-5.12 12.16-9.28-5.76 0.32-9.28 3.2-12.16 9.28z" fill="#C0A853" p-id="5231"></path><path d="M194.4 467.2h-12.64a7.52 7.52 0 0 1 2.24-7.36c2.4 4 6.56 3.68 10.4 3.84 1.12 0.64 1.6 1.44 1.12 2.08s-0.8 1.44-1.12 1.44z" fill="#E2D497" p-id="5232"></path><path d="M776.8 716c-12 12.16-25.28 16.64-41.6 15.2-5.28-3.36-8.16 0.8-10.88 3.68-7.52 8.16-16.64 14.08-25.44 20.32-30.72 21.76-64.48 35.2-102.08 38.72a37.28 37.28 0 0 0-8.16 1.76c-6.56 1.6-13.12 1.12-19.84 1.12-43.84 0.32-87.68-0.96-131.52 0.64-16.8 8.32-25.12 25.12-37.28 37.92-4 4.32-6.08 10.56-12.16 12.96-12.8 4.96-16.96 22.72-33.28 22.4-0.8 0-1.76 1.44-2.24 2.4-6.08 11.68-15.04 21.92-17.44 35.52 9.28 13.44 19.36 24.48 38.4 18.88 4.96-1.6 10.88 0.8 16.48 1.12 11.04 0.64 13.6 5.6 10.24 13.44l-1.76 0.32c-11.04 5.6-18.72 25.12-18.24 29.44 20.32 6.08 47.04 11.52 47.04 11.52s24.48 4.16 27.2 4.32c6.4 1.6 38.24 3.2 44.8 3.36 28.16 0.64 17.76 0.8 48.96-1.28 17.6-0.96 36.32-14.08 49.6-25.44 3.84-3.2 9.44-3.36 14.08-4.96 11.84-4.32 24.96 2.24 34.56-0.48 21.92-6.24 45.28-12.32 61.44-31.04 10.08-17.28 26.24-29.44 39.04-44.64-6.4-2.88 0-4.8 0.8-7.2 1.76 0.48 3.52-0.96 5.28-0.64a311.52 311.52 0 0 1 21.76-28.48c12-13.92 29.28-26.24 31.04-45.92 2.4-26.72 5.76-53.28 10.4-79.68-13.28-21.6-21.12-23.36-39.2-5.28z" fill="#D7C073" p-id="5233"></path><path d="M592.64 798.4c-5.92 4.48-12.8 2.72-19.36 2.72h-141.6c-17.92 9.6-37.28 3.84-56 4.96-13.28 0.64-26.72 0-40.16-0.16-5.28 0-10.56-0.32-14.4-4.64-20-2.24-40.64 3.84-60.48-3.36 17.76-10.24 36.96-3.52 55.52-4.96 34.4-1.6 68.48 5.6 101.28 3.04h-44.8c-4 0-8.96-0.96-9.92-4.48-4.48-15.04-17.28-16-29.44-19.52-30.08-8.64-52.64-28.8-73.92-50.56a8.16 8.16 0 0 1 0.8-7.2c13.6-0.16 20.64 13.6 33.28 15.36 32.8 16 66.72 24.96 103.36 17.28 42.24-8.8 86.72-8 126.72-27.68 10.56-5.12 21.44-9.12 30.56-16.8s19.68-12.32 29.92-17.76c3.36-1.76 7.2-3.68 10.72-0.48s0.64 5.92 0.48 9.12c-1.44 19.04-16.48 27.52-29.12 37.76a192.32 192.32 0 0 1-22.72 16.64c-29.6 18.24-60 34.72-94.88 41.6-7.84 1.6-0.32 2.88 1.76 3.68 40.16 0.16 80.16-0.16 120.16 0.16 7.84 0.48 16.16-1.28 22.24 5.28z" fill="#EFE9DB" p-id="5234"></path><path d="M375.04 801.6c-3.2 21.12-6.24 22.4-24.64 9.76a168.16 168.16 0 0 0-15.52-9.6h-13.44c-8 13.92-0.64 27.84-0.16 41.6s16.96 25.6 0.32 38.4c-3.52 8.64-14.56 13.28-13.76 24-6.08 1.92-13.28-1.28-19.04 3.2s-5.76 16.16-16.64 14.56A631.84 631.84 0 0 0 329.6 953.6c8 3.36 44.48 17.44 49.92 18.08 41.6 5.28 9.44-21.12 19.52-26.08 7.84-10.24 6.88-15.84-3.52-19.52a33.76 33.76 0 0 0-16.32-1.92c-17.12 2.56-30.08-4.16-41.12-16.16l-1.92-1.12c6.4-6.72 10.4-15.2 14.56-23.52s6.56-16.48 20.64-12c10.88 3.52 1.12-19.04 15.04-17.6 6.88 0.8 11.2-4.48 12.64-8.8 6.24-18.4 27.84-24.64 32.8-43.68z" fill="#C1A34D" p-id="5235"></path><path d="M318.08 798.08h-57.12c-11.84-15.68-4.48-33.44-5.6-50.24a6.88 6.88 0 0 1 6.72-1.76c24.48 9.44 46.72 21.76 57.76 47.36a6.08 6.08 0 0 1-1.76 4.64z" fill="#F8F2E0" p-id="5236"></path><path d="M254.72 741.44l-0.48-53.28c-3.04-5.28-4.32-10.4 2.08-14.24 8.48 5.6 6.4 15.84 10.08 23.36-0.16 6.24-0.32 12.48-4.96 17.28v6.72c4.96 8.96 7.36 17.76 0 26.72h-5.76a46.4 46.4 0 0 1-0.96-6.56z" fill="#F4EEE1" p-id="5237"></path><path d="M464.96 243.36h23.68c15.04 3.36 30.4 0.64 45.6 1.6 5.92 0.32 12-1.6 17.76 1.6-3.04 14.56-6.08 28.96-9.44 45.44 13.92-8 26.4-20.48 40.8-16.64s22.56 15.04 28.8 28c-3.2 8.96-15.2 9.12-19.2 19.84 16.64 4.16 14.4 13.92 8 26.24s-10.24 25.92-24.16 32.16a12.16 12.16 0 0 1-4.8 0.16c-3.84-1.28-7.04-3.84-10.88-4.96-10.24-3.52-21.12-1.28-31.52-2.72l-4.96-0.96a208.8 208.8 0 0 0-35.2-11.04c-2.56-2.24-1.92-4.64-0.64-7.36 2.88-6.24 14.72-8.32 5.28-20.48-4-5.12 9.6-13.76 16.48-20s18.4 1.28 19.68-8.8-9.76-16-17.76-19.52c-15.36-6.72-31.52-11.04-47.2 0.32a12.8 12.8 0 0 1-9.28 2.72c-9.92-5.92-6.08-12.32-0.16-18.24s14.88-11.04 22.24-17.6c-3.2-4.48-9.44-2.08-12.8-5.6a2.72 2.72 0 0 1-0.8-2.72q0.16-1.44 0.48-1.44z" fill="#F3EBDA" p-id="5238"></path><path d="M662.4 320.16c-17.44-4.16-33.44-10.56-43.52-26.72-5.12-15.36 1.76-28.48 7.84-41.76a16 16 0 0 1 10.56-1.28c9.44 3.84 19.2 7.2 26.08 15.2 3.36 8.8-1.76 15.2-7.2 20.64s-7.68 12.48 1.92 17.76c3.36 1.76 5.12 5.76 6.24 9.6a7.04 7.04 0 0 1-1.92 6.56z" fill="#EDE6D9" p-id="5239"></path><path d="M726.56 395.04c-4.64-12.48-13.6-20.32-20.8-28.96s-5.44-19.52-0.64-28.32 16.48-9.12 22.4-8.48c9.12 1.28 9.12 12.8 7.52 21.6-1.12 6.08-6.88 9.76 2.4 17.28s0.32 19.52-10.88 26.88z" fill="#E5DDD6" p-id="5240"></path><path d="M772.96 383.2v-2.88a42.08 42.08 0 0 0-4.64-18.08c-13.76-22.08-27.52-44.16-48.48-60.48a9.12 9.12 0 0 0-4.64-0.32c-0.48-9.28-8.96-10.24-15.68-13.44-20.96 9.12-24.16 18.24-12.64 35.52 2.08 3.04 0.48 3.68-1.44 4.32-5.28-8-16.96-2.72-22.4-10.72-15.36-5.76-30.56-11.52-40.96-25.12a46.56 46.56 0 0 1-4.16-5.28c-1.44-2.4-2.72-4.8-4.32-7.04-17.28-22.4-17.28-22.4-16.32-39.04a18.88 18.88 0 0 0-4.8-1.6c-12.64-0.48-25.28-1.76-37.92 1.12a14.08 14.08 0 0 0-4.32 3.04c-5.44 12.64-7.52 26.24-9.6 39.84s3.68 12.48 12.32 7.68l8.48-5.12c16.32-8.96 25.28-7.36 37.92 6.56a78.56 78.56 0 0 1 9.28 13.6c7.36 8.96 8.32 24.64 23.2 25.28s26.08 10.24 35.84 20.8c13.12 14.4 16.48 33.28 23.04 50.72 7.2 10.72 10.56 22.56 12 35.52 2.08 20.16 5.12 40.48 15.36 58.72 10.56 0.32 8-8.16 8.32-13.6 0.32-9.12 0.16-18.4 0-27.68s4.16-4.32 7.36-4.16c12-8.8 2.88-23.04 9.12-33.92 5.44 5.76 10.24 15.2 19.04 12.48s7.52-13.44 9.12-21.44c0.32-1.6 0.96-3.2 1.28-4.8a55.04 55.04 0 0 0 0.64-20.48z" fill="#EDE6D9" p-id="5241"></path><path d="M698.72 290.08a95.2 95.2 0 0 0-8.64 7.36c-12.16 12.48-9.76 21.12 7.68 25.92-3.52 6.24-9.44 6.4-15.36 6.56-2.88-3.36-6.56-7.04-10.72-3.68-10.72 8.48-6.56-3.84-9.28-6.24v-6.72c2.88-14.72 15.52-22.08 24.96-31.68a11.36 11.36 0 0 1 4.64-0.32 14.88 14.88 0 0 1 8 4.8 3.2 3.2 0 0 1-1.28 4z" fill="#E5E0D8" p-id="5242"></path><path d="M618.88 244.8a7.52 7.52 0 0 0-6.08 1.44 5.76 5.76 0 0 0-7.04-3.2l-6.88 0.32c-3.2 5.76-10.56 0.8-14.88 6.4 10.4 13.44 20.96 26.72 31.52 40v0.32l3.36 3.52c1.76-14.24 6.24-27.52 11.2-40.8-1.44-6.08-6.56-6.72-11.2-8z" fill="#E5DDD6" p-id="5243"></path><path d="M759.36 330.08c-5.28-4.32-6.88-10.08-6.72-16.64-8-5.6-5.28-17.44-13.12-23.36-3.2 8.48-4 23.52-16.8 6.4h-0.16c0.16-7.36-0.32-14.72-6.72-20-8.96-0.96-14.24 3.68-17.6 11.2l0.48 2.4a51.36 51.36 0 0 1 16.32 13.44l3.52 0.96v-0.32c0.16 0.16 0.16 0.16 0.16 0.32 17.92 18.24 32.96 38.56 47.04 59.68 2.4-12.32-6.72-22.24-6.4-34.08z" fill="#C79D3A" p-id="5244"></path><path d="M552 246.56c-21.12-1.76-42.56 3.68-63.36-3.2h63.2a21.44 21.44 0 0 1 0.16 3.2z" fill="#F9F2E1" p-id="5245"></path><path d="M833.12 650.88c2.24-9.6 3.04-19.36-0.96-28.8-1.44-3.36-2.24-6.72-3.36-10.08-3.2-22.4-11.36-43.2-18.08-64.64-5.44-4.48 2.56-14.88-7.52-17.28-4.64 5.12 0.16 12-3.36 17.28-1.28 17.92-2.56 36-7.36 53.44-6.88 8.16-8.64 17.92-8.32 28.32a7.52 7.52 0 0 0 2.24 2.72l-20.16 50.88-1.28 0.32a9.44 9.44 0 0 0-4.64 1.12c-11.84 11.52-16 28-25.76 40.96-1.6 2.08-0.64 5.12 1.44 7.36a30.72 30.72 0 0 0 35.04-6.56c14.56-14.24 28-21.44 44.96-4.64 5.76-0.48 6.4-4.32 7.04-9.12 1.12-7.68 2.88-15.36 4.96-25.76l8.32 11.36c-1.28-15.68 3.04-31.52-3.2-46.88z" fill="#CBA747" p-id="5246"></path><path d="M739.2 697.92c8.32-3.36 13.28-13.12 23.68-12.96L735.2 731.2c-11.68 8-20 20-32.8 26.56-8-1.12-8.64-6.4-7.04-12.8a109.76 109.76 0 0 0 35.36-41.12c1.44-3.2 3.36-7.52 8.48-5.92z" fill="#F2EAD9" p-id="5247"></path><path d="M418.4 239.68h-70.4a6.72 6.72 0 0 1-1.28-7.04c11.68-9.44 18.88-26.08 38.08-22.88 17.44-1.12 29.92 4.8 33.44 23.52a4.16 4.16 0 0 1 0.16 6.4z" fill="#DBB958" p-id="5248"></path><path d="M394.88 199.68h-6.72c-11.52-13.44-16.96-28-10.88-45.76 1.92-5.76 1.12-11.84-0.8-17.92-4.16-13.28-7.84-26.56-11.68-39.84-8-4.32-14.88-5.28-16.48 6.4 2.24 2.72 2.56 6.56 5.28 8.96a35.84 35.84 0 0 1 8.16 14.4l1.44 4.16c1.12 10.08 2.08 20.32-1.6 30.24-3.68 14.88-10.08 29.28-8 45.12l2.08 0.48-0.96 0.48c-5.44 8.96-11.04 17.76-16.64 26.72 3.36 3.04 6.88 2.72 10.24 0.16 13.12-6.24 20.96-20.96 36.48-23.52 2.4-4.32 10.72-2.72 10.08-10.08z" fill="#C19536" p-id="5249"></path><path d="M418.4 239.68v-6.4h63.52a4.32 4.32 0 0 1 0 6.4z" fill="#CFA437" p-id="5250"></path><path d="M575.36 239.68H552c8.64-8.96 14.72-8.96 23.36 0z" fill="#C79D37" p-id="5251"></path><path d="M545.28 229.92h-40.16l-10.08 3.36h-13.12v6.4h66.72c0-3.68 0.64-7.52-3.36-9.76z" fill="#C39730" p-id="5252"></path><path d="M264.32 597.92c-2.08-3.84-4.32-7.36-9.12-8.16l-3.36-9.76c-3.84-3.84-2.24-8.16-0.96-12.48a7.2 7.2 0 0 0 0.16-3.2l1.92-1.92c22.24-1.28 42.72 8.64 64.48 10.56 4.48 0.96 8.48 2.4 11.36 6.24a11.04 11.04 0 0 1 1.44 4.96c-1.12 6.56-0.48 13.44-3.2 19.84-8.48 9.6-17.92 17.44-31.2 19.2-15.52-2.4-24.16-13.12-31.52-25.28z" fill="#6E6342" p-id="5253"></path><path d="M250.72 567.68l0.96 12.48c-6.88-3.68-4.16-8-0.96-12.48z" fill="#FDEDA6" p-id="5254"></path><path d="M247.68 557.92l3.52-3.68c1.92 2.24 4.96 1.28 7.2 2.56a4.96 4.96 0 0 1 0.48 3.68c-1.6 2.56-4.8 1.44-6.88 2.88l-1.12 1.12c-1.12-2.24-2.24-4.32-3.2-6.56z" fill="#655C3D" p-id="5255"></path><path d="M239.04 518.88c-2.88-3.68-4.48-2.56-5.92-0.64a54.4 54.4 0 0 0-3.68-4.8c-4.16-3.2-7.52-7.2-11.68-10.4h-0.16c-1.28-14.4 2.08-28.48 3.36-42.56-6.56 6.56-8.64 15.84-13.28 23.52 0.32 5.76-0.48 10.88-6.56 13.44 1.76 4.48 6.88 7.52 6.56 13.12h-0.16c1.28 3.36-3.68 6.72 0.16 10.08 1.44 7.84-3.04 16.48 3.36 23.52a0.64 0.64 0 0 0 0.16-0.48v3.68c-0.8 3.04 0.16 4.32 3.36 3.36 7.52-3.04 10.4-12.8 19.52-13.44l3.36 3.36 1.28-0.48a119.84 119.84 0 0 0 0.32-21.28z" fill="#F1DF9C" p-id="5256"></path><path d="M227.68 513.92c-6.4-0.16-9.6-3.52-10.08-9.92-10.72-15.36-0.64-29.28 3.36-43.52l10.08-10.08c-1.12-0.8-1.6-1.44-1.12-2.24s0.8-1.12 1.12-1.12c4.16-17.44 19.36-29.28 23.36-46.88 6.08 6.24 3.52 18.4 14.72 21.28 4.48 3.68 2.4 7.36 0 11.04a20.32 20.32 0 0 1-5.92 5.76c-23.04 12-28.96 33.28-31.04 56.8-0.48 6.56 1.12 13.6-4.48 18.88z" fill="#F4EDBF" p-id="5257"></path><path d="M177.92 490.88l2.56-3.68h10.4c-2.56 6.88-7.84 4.96-12.96 3.68z" fill="#E4D79B" p-id="5258"></path><path d="M254.72 386.56c4.64-4.16 4.64-9.92 5.12-15.52 0-2.56-0.48-4.96-0.64-7.52-0.8-6.72 0.64-13.92-4.16-19.68l-0.64-0.48c-16.64 17.92-36.64 33.28-40.32 59.84-10.4-1.44-9.6 8.48-13.44 13.76-9.28 12.8-15.52 27.04-16.96 43.04-0.64 7.04 4.8 4.8 8.32 5.44s8.64 3.52 13.44 3.36c-4.48 0.32-7.84-3.36-12.32-3.2s-8.16-1.6-11.52 1.76c-0.48 3.2-0.8 6.56-1.28 9.76a8.96 8.96 0 0 0-0.48 10.4 11.36 11.36 0 0 0 3.52 2.08 15.52 15.52 0 0 0-6.08 0.64l-0.96 2.08 1.12 1.92c0.16 4.48 0.48 8.8 0.64 13.28v16.32h-0.16c0.16 2.24 0.16 4.64 0.16 6.88 3.2 7.68-0.8 16.16 2.56 23.84 0.32 3.2 0.48 6.24 0.8 9.44a169.28 169.28 0 0 0 18.88 64c3.68-2.24 3.04-5.12 1.92-8.48-6.08-18.4-12-36.96-17.92-55.52v-20.8c8.8 4.48 4.16 13.6 10.08 17.6-2.72 7.52-2.08 16.16 5.6 18.08s15.04 1.28 20-4.32-2.88-11.04-6.08-16-0.32-5.28 0.48-7.84l-2.56-2.72 0.32-0.32a14.72 14.72 0 0 0 0.64-4.64c-1.28-6.88-0.64-13.92-2.4-20.8-2.08-3.68 0-8.32-2.72-11.68l1.44-1.76c0.96-4.8-1.12-7.52-4.32-9.6 4.16-4.16 7.36-8.32 3.68-14.24 7.52-5.28 8.96-15.2 15.2-21.44 1.6-5.6 14.4-4.8 8.48-14.72h-1.12v-1.12l2.08-0.8c8.64-15.52 21.12-29.12 24-47.52a16.48 16.48 0 0 0-1.44-12z" fill="#F3EBB3" p-id="5259"></path><path d="M194.4 467.2v-3.2l14.56 4.16c-6.08 4.64-10.24 0.64-14.56-0.96z" fill="#EBE0A5" p-id="5260"></path><path d="M302.24 656.16c-19.84-15.36-31.04-35.2-35.36-59.36-1.76-4.8-4.32-8.16-9.44-7.68a10.24 10.24 0 0 0-3.04-7.84c-8.48-2.88-0.16-8.48-1.92-12.32a13.12 13.12 0 0 0 0-4.32 51.2 51.2 0 0 0-2.88-8.32 43.52 43.52 0 0 0-10.56-16.64 12.64 12.64 0 0 0-5.76-3.84c-10.4-0.64-14.88 7.84-20.96 13.92-3.36 4.8-2.08 9.12 0.96 13.6s5.28 8-1.6 10.08-9.92 2.56-13.12-3.04-1.44-8.64-2.56-12.8c-1.6-6.72-2.72-17.44-10.08-16.16s-2.08 11.84-3.2 18.24a21.28 21.28 0 0 0 0 3.2c3.68 22.24 13.76 42.88 17.6 65.28 0.8 8.96 6.24 15.68 10.72 22.88 4.64 3.52 3.04 11.84 10.08 13.6a44.96 44.96 0 0 0 11.04 20c6.24 6.08 10.56 4.8 12.96-2.24a12.16 12.16 0 0 0 9.12 5.6c1.12-4.64-0.8-10.08 3.52-13.92 22.4-3.52 45.28 1.44 67.84-4a7.52 7.52 0 0 0 3.36-4c-6.4-10.08-18.56-3.52-26.72-9.92z" fill="#EDD78B" p-id="5261"></path><path d="M284.32 369.44l-26.56 0.64-3.2-3.36c11.04-6.4 12.96-14.08 3.2-23.36 0-17.12 0.32-34.08-0.16-51.2-0.32-8.96 3.84-15.04 11.2-18.4 18.4-8.32 37.28-16 55.84-24 7.36 1.28 8.32 5.44 5.92 12-4.96 13.44-9.92 26.72-20.64 36.8a24.48 24.48 0 0 0-8.16 18.88c-1.28 8.16-4.96 15.84-6.4 24s-4.8 19.68-11.04 28z" fill="#F8F0DE" p-id="5262"></path><path d="M297.92 316.8c-1.28-8.48 2.08-15.04 8.64-20.32 12.8-10.4 15.2-26.56 22.24-40.16 0.64-1.12-2.72-4.16-4.16-6.4l3.36-3.36c3.68-4.96 8.8-2.88 13.44-3.2 5.76 3.2 11.84 0.8 17.76 1.44 3.04 0.32 7.2-1.28 8.8 2.56s-0.64 6.56-3.04 8.96c-13.28 13.92-25.12 29.6-40.96 40.32-8.8 6.4-12 20.64-26.08 20.16z" fill="#F6EEDC" p-id="5263"></path><path d="M257.76 343.52c7.36 0.96 13.44 4.8 12.64 12.48s-7.68 11.52-15.84 10.88l0.48-23.04z" fill="#FBFAEF" p-id="5264"></path><path d="M709.12 169.76c-4.64-17.44-16-29.92-30.08-40.16-1.12 1.12-2.08 2.24-3.52 3.52l-3.04 2.88a60 60 0 0 1-16.8 16.8 10.08 10.08 0 0 1-6.56 9.92c-8 11.2-7.2 24-6.72 36.64a0.16 0.16 0 0 0 0.16-0.16c0 0.16 0 0.16-0.16 0.32l-3.36 3.52a39.2 39.2 0 0 0-16.32 27.52c1.44 5.28-1.12 9.6-3.52 14.08-0.16 0.64-0.16 1.44-0.32 2.08l11.2 5.76 8.48 1.6a19.84 19.84 0 0 0 7.04-5.6c3.52-4.16 6.4-8.64 4.8-14.56-5.44-8 1.92-12.32 5.12-17.76 10.4-17.12 28.16-25.12 44.32-34.72l4.16-0.32c5.12-2.24 8.96-5.12 5.12-11.36z" fill="#B69746" p-id="5265"></path><path d="M649.12 163.04c-15.68 9.92-26.24 25.28-40.32 36.8-4.96 3.68-11.84 5.76-13.12 13.28-5.44 8.48-14.88 14.88-13.76 26.72 4.32 3.52 9.92 0 14.4 3.04h1.28l1.28 0.48a6.4 6.4 0 0 0 6.88 1.44l0.96-1.12 5.6 3.2h6.72v-0.96c3.04-3.68 4.64-8.32 6.72-12.64 0-12 10.08-19.52 13.44-30.08l0.96 0.8a7.04 7.04 0 0 0 5.28-4.8c0.8-12.16 4.16-24 3.68-36.16z" fill="#AB8032" p-id="5266"></path><path d="M364.96 159.84a40.16 40.16 0 0 0 0-33.76 21.44 21.44 0 0 0-0.16-3.2c-2.56-5.12-4.16-10.72-9.76-13.6a12.32 12.32 0 0 0-6.88-6.72 21.44 21.44 0 0 0-0.16 3.2c-6.24 11.36-1.92 23.52-3.2 35.36 0 4.8 0 9.44 0.32 14.24 2.24 12.16 3.2 24.16-0.16 36.16-3.04 7.68-5.92 15.52-8.16 23.36s-11.2 14.4-6.08 24.32h4.32a56 56 0 0 0 6.24-6.08c4.32-9.12 16-14.4 13.6-26.88l10.08-46.56z" fill="#DEBF67" p-id="5267"></path><path d="M297.92 316.8l69.12-67.04c-8.64-6.56-18.88 0.8-25.6-6.24h123.36v3.2a12.64 12.64 0 0 1-7.68 4.16 356.16 356.16 0 0 1-36.96 0.64h-1.6c-8.64 0.48-19.84-4-25.44 1.28s1.28 16.16 1.76 24.64 0.32 13.12-1.92 19.52c-3.52 19.04-16.32 31.04-31.52 41.12-11.68-4.16-6.4-14.4-7.68-22.24-0.64-4.16 1.28-9.76-3.84-11.52s-7.68 3.04-10.88 5.76a66.4 66.4 0 0 0-14.08 17.92c-10.08 4-20.96 6.08-29.44 13.44a5.12 5.12 0 0 1-4.48-0.8c2.56-8.16 4.64-16 6.88-23.84z" fill="#F9F2E1" p-id="5268"></path><path d="M338.08 233.28h10.24c-0.16 2.08-0.32 4.16-0.32 6.4h-12.96c0-2.88 0.64-5.12 3.04-6.4z" fill="#C29635" p-id="5269"></path><path d="M348.48 192.96V156.48a48 48 0 0 1 0 36.48z" fill="#DEBF67" p-id="5270"></path><path d="M804 548.48c-0.32-5.28-0.16-10.72-1.44-16s-5.28-13.92-3.52-21.6V504c-4.96-25.28-14.56-49.28-20.48-74.24-2.24-8.8-2.4-18.72-9.28-25.92-7.52 6.4 1.28 19.2-9.44 24.32-7.68-3.68-10.88-12.8-19.04-15.36-10.72 11.04 0.16 26.4-8.16 37.6-2.24-3.36-3.52-8.32-8.16-7.04-6.72 18.08 3.04 36.48-4.96 53.76h-0.16c-4.32-20.32-10.08-40.48-12.48-61.12-1.6-13.76-4-25.92-14.24-35.68h-0.16a101.92 101.92 0 0 0-12.96-38.56c-8.48-15.04-20.16-31.84-36.64-32.8-19.52-1.12-23.52-13.12-30.56-25.28-7.36 4-15.52 6.24-21.28 12.8-2.56 2.88-6.24 5.44-4.8 9.92s5.28 1.44 8.16 1.76c5.28 0.64 11.2 3.84 8.16 9.28-8.32 14.56-11.04 32.96-27.04 42.72-2.08 2.08-0.64 3.84 0.64 5.6a53.44 53.44 0 0 1 7.2 7.52c2.56 2.56 2.56 8 7.52 7.52-0.64 6.56 4 11.68 6.88 16.96 14.56 26.72 23.2 54.72 23.36 85.28 0 12.32-0.64 24.48 0.48 36.8a15.68 15.68 0 0 0 3.04 7.36c8.8 1.12 8.48-5.28 7.36-10.4a63.84 63.84 0 0 1-1.12-16.32c0 17.12 0.8 16.96 19.04 15.68 5.12-0.32 10.88-2.72 15.52 2.4-6.24 13.6-19.84 22.08-23.2 36.8s-10.88 15.84-22.56 11.68c-6.4 0-7.36 5.44-9.44 9.6a58.88 58.88 0 0 1-7.2 16.96 17.44 17.44 0 0 0-2.88 11.2c1.92 16.16-6.08 28.64-16.32 39.36s-20.16 16.96-31.2 24.48c-4.96 3.2-13.44 8.64-2.4 15.68 2.72 0.96 5.92-1.6 8.64 0.64 12-5.12 21.6-15.52 36.16-18.72-22.08 44-16.16 29.44-52.96 58.72-30.56 17.92-60.96 36.48-97.6 40.96-8.48 1.12-9.6 6.56-2.56 12.32 20.8-3.84 41.76-1.6 62.72-1.44 31.36 0.16 62.88-2.08 94.24 1.44a201.92 201.92 0 0 0 103.52-40.48l-6.56-9.76c-5.76-2.4-9.12 2.88-13.28 5.6a82.72 82.72 0 0 0 25.6-43.04c1.44-6.24 3.04-14.4-8.64-12.96-3.04 0.32-6.72 6.72-9.28-0.16-1.44-3.84-0.32-7.68 2.08-11.04 5.12-7.04 12.16-11.52 19.04-16.16a210.4 210.4 0 0 0 39.2-33.92l-0.48 0.64c-3.52 4.96-8.32 10.72-4.32 16.48 6.08 8.8 1.12 15.68-0.96 23.52s-9.12 11.84-6.4 20c12.64 4.8 15.36-10.24 24.64-12.32l2.88-0.96c13.44-15.2 21.76-32.16 20.96-52.96 1.92-10.08 4-20 5.92-30.08a4.48 4.48 0 0 1-1.44-1.6l3.36 0.96c8.96-16.16 8.32-33.92 9.28-51.52z m-95.52 68z m48.32 12.64a166.56 166.56 0 0 0 9.92-13.76c-2.24 5.12-6.08 9.44-9.92 13.76z" fill="#F5EFE0" p-id="5271"></path><path d="M441.76 798.08c2.72-3.52 6.72-3.36 10.56-3.36h135.84c3.84 0 7.84-0.32 10.56 3.2l-6.08 0.32c-50.24 0.16-100.64 0-150.88-0.16z" fill="#F6F1E4" p-id="5272"></path><path d="M261.12 748v-26.72c24.16 16 42.88 41.28 73.12 46.72 17.28 3.04 30.08 8.48 33.92 26.88a154.72 154.72 0 0 1-50.08 0c-12.64-23.36-35.04-34.88-56.96-46.88z" fill="#F3ECDC" p-id="5273"></path><path d="M244.32 681.28c-3.04 1.12-5.12 8.16-9.6 0.96s-8.96-11.84-13.6-17.6c4.16 28.64 12.32 55.52 33.28 76.8 7.36-16.32 3.52-33.28 3.2-50.08a15.2 15.2 0 0 0-13.28-10.08zM375.04 801.76h-40.32c4.48 8.16 12.48 12.32 19.68 17.28s12.8 8.96 19.68 3.68 4.32-13.76 0.96-20.96z" fill="#D1B058" p-id="5274"></path><path d="M264.48 697.92c13.92 7.04 20.48 20.16 26.72 33.44-13.92 1.28-20.32-10.72-30.08-16.8 0.96-5.6-2.08-12 3.36-16.64z" fill="#F3ECDC" p-id="5275"></path><path d="M318.08 794.88h112.96v3.36h-112.96z" fill="#F5EFE0" p-id="5276"></path><path d="M625.6 547.36c0-2.08-0.16-4.32-0.32-6.56 0-13.28 0.16-26.56 0.16-39.84h-0.32c0.16-0.16 0.32-0.32 0.32-0.48-0.48-36.96-13.12-69.92-33.28-100.32l-6.72-9.92a118.72 118.72 0 0 0-14.24 15.52c-14.4 32-44.64 41.92-74.24 52.48-5.44 2.08-12.16 1.76-15.04 8.48-2.08 13.92-2.56 27.84 0.48 41.6 4 5.12 9.6 6.24 15.2 7.04a16 16 0 0 0-10.08 2.24c-6.72 18.72-3.68 37.92-1.92 57.12a23.84 23.84 0 0 0 2.72 2.88c-3.52 3.04-4.32 7.36-4.48 11.84 0.16 21.28-1.44 42.72 0.96 64a12.8 12.8 0 0 0 2.4 4.64 6.88 6.88 0 0 0-4 5.28 7.2 7.2 0 0 0 1.92 4.96c22.88 7.04 46.24 6.08 68.64-0.32s40.16-20.32 48-43.84l3.68-9.92c-1.44-7.2 0.32-12.96 7.2-16.64l6.08-10.4c8.8-12 13.12-25.12 6.88-39.84zM511.84 520c-4.16-1.28-8.32-3.52-12.8-4.32 4.64 0.64 9.28 1.44 12.8 4.32z" fill="#E8CB82" p-id="5277"></path><path d="M484.8 664.32c43.04 15.36 84.64 1.12 117.12-40 4.48 11.68-2.56 34.08-14.08 41.92s-20.16 19.04-33.12 24.8c-1.28 0.64-13.6 3.84-2.72 10.24-10.4 4.64-20 11.68-32.48 4-3.84-2.4-10.88-0.48-16 0.8s-10.08 10.88-17.12 4.32-15.84-11.04-14.56-22.4c1.76-23.52 1.92-46.88 1.92-70.4a162.24 162.24 0 0 1-0.16-21.6c-0.8-37.12-0.64-74.24-0.32-111.52 0-7.68-2.08-17.12 8.48-20.8 3.68 19.68 2.24 39.68 2.72 59.36 1.6 46.88 1.12 94.08 0.32 141.28zM618.72 587.36c2.24-13.28 4.64-26.56 6.88-40 8-16-0.32-33.6 4.96-51.04 4.16 12.32-4 28.32 4.32 34.24s21.92 0.48 33.28 0.16a22.4 22.4 0 0 1 5.28 1.28c-1.28 10.4-9.76 16.32-15.04 23.52s-13.12 14.88-13.12 25.92c0 7.68-6.56 10.08-12.32 11.68s-12.64 3.68-14.24-5.76z" fill="#F9F4E5" p-id="5278"></path><path d="M605.6 614.4c-9.6-14.72-9.28-15.36 7.04-16.64-0.48 6.24-2.24 12.16-7.04 16.64z" fill="#E2CD89" p-id="5279"></path><path d="M695.84 748c-5.12 3.36-10.08 6.88-15.2 10.08s-4.48-0.48-4.8-3.36a83.84 83.84 0 0 0 27.36-40.64c1.28-4.48 6.08-9.92 0.32-13.12s-7.84 2.4-10.72 6.08a44.16 44.16 0 0 1-3.84 3.36c-8.48-17.28-2.08-27.36 12.32-37.44 26.08-18.4 52.48-37.12 70.08-70.72 0.16 11.2-4 16.32-6.88 21.44s-7.52 9.6-10.72 14.72-9.92 9.12-0.64 18.56-5.92 20-8.96 30.72c-0.96 3.36-4.8 5.92-4.8 10.24-12 18.88-21.92 39.52-43.52 50.08z" fill="#EAE1D7" p-id="5280"></path><path d="M531.52 294.4c-11.2-9.92-23.04-16.64-39.2-18.72s-25.44 5.28-37.12 10.88a17.28 17.28 0 0 0-6.08 4.16c-11.2 17.6-16.64 37.6-23.2 57.12 1.44 8.48 0.16 17.44 4.8 25.28 5.6 1.92 7.68-0.32 7.68-5.12 7.84 3.68 12.64 13.28 22.88 12.16 10.72-4.32 19.2-12 27.36-19.84 2.72-6.72 9.76-8.64 14.08-13.28 2.24-2.24 8-8.32 0.32-9.28-12.96-1.6-7.04-4.48-2.08-8.96s7.36-8 11.04-12c3.2-0.48 6.72-2.08 9.76-1.28 7.36 2.24 11.2-0.8 14.56-7.04s-0.8-10.4-4.8-14.08z" fill="#F5EDDC" p-id="5281"></path><path d="M461.76 376.96c8.96-5.44 14.72-16.16 26.72-16.8s25.28 3.36 36.8 9.28c-2.56 4.32-6.88 4.48-11.04 4.64a35.2 35.2 0 0 1-7.04-0.8c-7.52-2.56-13.76 2.24-20.64 4l-4.16 1.44c-18.72 16-18.4 30.88 0.96 40a6.88 6.88 0 0 1 3.84 2.88 19.52 19.52 0 0 1 2.08 7.36 124.32 124.32 0 0 1 0.48 13.28c0.16 7.52 0.96 15.2-4.64 21.44v46.88a10.08 10.08 0 0 1 1.92 5.92c-0.96 42.08 0 84.16-0.48 126.24 0 5.92 1.44 12.16-1.44 17.92l-0.48 3.36c-4.96-5.12-2.88-11.52-2.88-17.44-0.16-60.96-0.16-121.92-0.32-182.88-8.48-8.96-0.64-21.6-7.2-30.88s-20.16-6.88-25.76-17.12c-6.72-13.44 2.56-23.52 7.04-34.56 1.92-1.76 4.32-2.56 6.24-4.16z" fill="#DCDBD6" p-id="5282"></path><path d="M455.04 286.72l-3.36 3.36c-2.56 3.68-4.8 7.68-8.16 10.4-5.92 4.96-12.64 11.52-20.32 9.44s-5.12-12.16-6.72-18.88c8.32-20.16 25.12-32.16 41.92-44.48h6.72c6.88 0.96 14.24-2.24 21.44 3.52-7.36 9.76-17.92 15.36-27.04 22.24-5.92 4.48-8 8-4.48 14.4z" fill="#F0E7D8" p-id="5283"></path><path d="M528.48 370.56c12.32 0.32 24.96-3.84 36.64 3.68-1.6 9.6 3.04 20.48-5.76 28.64-5.12 3.52-10.08 5.12-15.2 0s-0.64-10.24-2.72-15.04-11.52-6.56-14.24-13.12a5.6 5.6 0 0 1 1.28-4.16z" fill="#CAA749" p-id="5284"></path><path d="M528.48 370.56a4.96 4.96 0 0 1-0.16 3.04c-6.4 4.32-12.48 6.88-16.32-3.04l13.28-1.12z" fill="#2A2715" p-id="5285"></path><path d="M689.28 283.2L662.4 313.44c-1.44-1.6-2.56-4.16-4.32-4.8-22.08-8.64-12.64-18.08-1.44-28.48 3.2-3.04 4-8.8 5.92-13.44 3.04-1.76 5.76-0.48 8.64 0.48 6.72 3.2 13.28 6.56 18.72 12a4 4 0 0 1-0.64 4z" fill="#DBD9D6" p-id="5286"></path><path d="M668.64 269.28l-6.24-2.72-23.84-12.48c0.32-3.04 0.8-5.92 3.84-7.68 8.16 3.36 13.6-4.48 20.8-5.12s15.04 0.16 17.28 9.44-3.68 15.2-11.84 18.56z" fill="#AE8E42" p-id="5287"></path><path d="M749.28 196.8c-3.2-22.4-4.8-45.12-16-65.44s-40.64-21.76-54.24-1.76c8.64 15.04 22.72 26.4 28.96 43.2l0.8 0.8a11.04 11.04 0 0 1-6.24 6.88c-21.6 5.44-40.64 14.24-48.32 37.6 1.44 3.68 4.48 4.8 8.16 4.96 7.52-1.12 14.72-2.88 20.32-8.64 0-0.48-0.16-0.8-0.16-1.28h16.32c4.32 1.28 9.12 0.96 13.28 2.72s10.72-2.08 6.4 6.56-9.6 15.2-7.36 23.2-2.4 15.52-7.2 22.08-9.12 9.6-11.68 15.84l5.92 4.16 16.32-10.4c1.28 6.56 3.84 12.8 5.44 19.36 10.4 15.36 13.44 14.88 22.08-2.72a54.4 54.4 0 0 0 0.48-7.2c5.6-29.76 11.2-59.36 6.72-89.92z" fill="#B48634" p-id="5288"></path><path d="M662.4 219.84v3.36c-1.92 5.76-6.72 8-11.84 9.76h-2.24c-8.32-7.52-7.04-10.24 7.2-16.8 1.44 2.88 4 3.68 6.88 3.68z" fill="#927036" p-id="5289"></path><path d="M328 667.68v-3.2c-5.12-6.08-4.16-13.44-4.32-20.64a99.2 99.2 0 0 1 1.12-15.36 16.32 16.32 0 0 1 1.76-4.64 33.76 33.76 0 0 1 3.04-3.68c7.68-10.4 16.48-15.36 29.28-8s16.8-4.32 25.12-7.04c12.48 6.88 26.72 9.92 38.56 18.08-3.68 7.52-11.52 7.2-17.92 9.28-11.84 3.84-23.84 7.36-34.4 14.4-25.76-2.08-33.28-4.48-36.64-12.32-1.12 11.84 9.92 24.96-5.44 33.12z" fill="#F0EADC" p-id="5290"></path><path d="M252 563.36c0.8-2.72 3.04-2.72 5.28-2.72 11.52-3.2 22.88-1.76 34.4 0.16 11.84-1.28 21.6 6.88 33.12 6.88a2.56 2.56 0 0 1 3.68-0.64 4.48 4.48 0 0 1 0.48 4c-2.56 3.84-7.52 3.52-10.72 6.24-22.56-2.4-44.48-7.84-66.24-13.92z" fill="#252211" p-id="5291"></path><path d="M327.52 570.88a4.96 4.96 0 0 0 0-3.04c-5.44-18.88-4-38.24-4-57.44 0-3.04 0-5.92-0.16-8.96a36.48 36.48 0 0 1 0-5.92c0.96-13.6-1.12-27.2 1.28-40.8a10.56 10.56 0 0 1 3.36-4.96c3.84-0.16 5.28 2.4 6.56 5.44 2.4 18.4 1.6 36.96 1.6 55.52 0.32 14.56 0.64 29.28 0 43.84-2.24 23.2 4.64 47.04-4.96 69.6h-2.72c-6.24-5.76-5.12-12.64-2.56-19.52s-0.8-13.76 1.6-20.48v-4c-1.76-2.88-2.4-6.08 0-9.28z" fill="#C2BEB3" p-id="5292"></path><path d="M327.52 604l0.96 20.32h-0.64c-6.4 6.88-15.36 5.6-23.36 7.36l-10.4-10.08c11.68-3.04 19.84-12.48 30.56-17.28 0.96-1.6 1.92-1.76 2.88-0.32z" fill="#917C48" p-id="5293"></path><path d="M327.52 604H324.8c0.96-6.56-2.4-13.76 2.72-19.68z" fill="#685C3B" p-id="5294"></path><path d="M327.52 570.88v9.6l-9.44-3.2a9.92 9.92 0 0 1 9.44-6.4z" fill="#211E0B" p-id="5295"></path><path d="M271.52 440.96c-14.88 4-23.36 13.28-24.16 28.96-3.2 6.4 1.44 13.92-3.04 20.16a60.32 60.32 0 0 0-5.92 24.16q1.6 2.24-0.96 2.88l-5.92 3.84c-3.04-1.44-3.52-4-3.68-6.88 0.32-9.44 0.8-18.72 1.12-28.16 0.8-26.88 17.6-42.72 38.56-55.52a6.72 6.72 0 0 1 5.44 4 7.04 7.04 0 0 1-1.44 6.56z" fill="#E4D99B" p-id="5296"></path><path d="M320.96 557.12c0.48-8.8 4.64-17.6 0.16-26.4 0.16-2.4 0.32-4.8 0.64-7.2 4.32-4.48-4.48-13.6 5.76-16 0 20.16 0 40.16-0.16 60.32a8 8 0 0 1-2.72-0.32c0-3.84 0.48-8-3.68-10.4z" fill="#685C3B" p-id="5297"></path><path d="M258.4 510.56c8.64 7.36 23.84 9.92 19.52 26.88-11.2-5.44-16-15.68-19.52-26.88z" fill="#38321E" p-id="5298"></path><path d="M325.44 556.8c-3.2-4.32-4.96-9.76-9.28-13.44s-7.68-4.32-10.56-7.68c-6.4-5.76-13.76-4.64-21.12-2.4-2.4 1.76-3.2 4.32-4.16 6.72-1.76-0.8-0.48-2.88-1.76-3.84-7.04-8-13.44-16.48-17.6-26.4a71.36 71.36 0 0 0-12.16-17.76c-2.08-1.6-4.16-2.72-6.88-1.92-6.72 6.24-7.2 14.4-6.88 22.88s1.76 16.96 2.72 25.44a12.16 12.16 0 0 0-0.16 2.4l10.08 17.12c2.08 0.16 4.32 0.48 6.56 0.48h3.84a12.48 12.48 0 0 1-0.8 2.24h12.64c7.2 1.6 14.88 0.48 21.92 3.36 11.04 0.96 21.12 9.44 32.96 4.48 3.2-3.52 2.72-7.52 0.64-11.68z" fill="#746846" p-id="5299"></path><path d="M244.16 490.08c0.48-6.88-1.28-13.92 3.04-20.16l0.48 24z" fill="#5F593C" p-id="5300"></path><path d="M294.56 369.92l-4.16 0.32-5.92-0.8c-1.92-10.72 4.8-19.52 6.88-29.28h3.2a6.08 6.08 0 0 1 4.8 4.32 8.8 8.8 0 0 1-0.64 4.48c-4.48 6.4-1.6 14.24-4.16 20.96z" fill="#DEDCD7" p-id="5301"></path><path d="M662.24 246.56l-14.88 5.44c-5.12 1.6-4.8-2.08-4.96-5.28 3.84-3.68 6.72-7.84 5.92-13.6l1.28 0.64c7.04 1.44 11.68 5.28 12.64 12.8z" fill="#523C25" p-id="5302"></path><path d="M618.72 245.92c0.64-5.12-1.76-11.84 6.72-12.64 6.56 8.8-2.4 9.44-6.72 12.64z" fill="#A37E38" p-id="5303"></path><path d="M361.44 336.8l-13.44 23.36c-2.56 6.56-3.84 14.08-12.8 15.2a8.32 8.32 0 0 1-4.32-1.6c-2.56-7.52 4.96-14.4 1.44-21.92-1.28-3.36-4-5.76-5.28-9.12 5.6-6.4-5.92-10.08-2.4-16.16 0.48-9.76 17.12-29.44 25.28-29.92s7.68 4 8.16 9.44c1.28 10.56-3.36 21.28 3.36 30.72z" fill="#F3EDDF" p-id="5304"></path><path d="M418.24 246.56c2.72 19.36-10.4 34.24-15.04 51.52-2.56 9.28-9.44-3.68-15.04-1.44 7.84-16.64-1.28-32-3.36-50.08z" fill="#F6EEDC" p-id="5305"></path><path d="M324.64 326.88c1.12 5.44 13.76 8.8 3.36 16.64a8.96 8.96 0 0 0 6.72 6.72c8.48 8.96-1.6 15.68-2.72 23.52 2.4 4.16 2.72 8-2.24 10.72-2.72-0.48-3.84-2.56-4.64-4.96a45.28 45.28 0 0 1-1.28-6.4 11.2 11.2 0 0 0-1.76-3.68c-5.6-3.2-13.12-0.48-18.24-5.28a10.24 10.24 0 0 1-1.44-8.8c1.44-4.96 5.6-7.52 10.08-10.08-4.96-3.52-10.08 1.6-14.24-1.6l-3.36-3.36c6.4-12 17.44-14.4 29.76-13.44z" fill="#D6D6D4" p-id="5306"></path><path d="M552.32 701.28c-1.76 1.76-4.16 0.8-6.08 1.44-14.88 4.32-30.24-7.52-44 0.48-11.36 6.72-16.96 2.08-22.88-6.4-2.24-3.36-3.68-7.2-6.88-9.76a22.88 22.88 0 0 0 5.76-15.52c0.64-17.92 0.32-36 0.32-53.92v-20c-4.48-12.16-10.4-22.24-26.24-17.76-7.2 16.8-14.08 33.92-30.56 44.48-18.4 4.96-38.24 6.72-53.44 20.16 5.28 24.64 5.12 24.48-18.72 31.36-6.24 1.76-13.44 2.56-16.8 8.64-4.96-3.68-8.32-8-4-14.88-0.32-0.64-0.48-1.44-0.8-2.08h-55.84c-5.44 0.16-12.8-2.56-14.4 6.56s-2.08 17.76 7.04 23.84c8.8 11.2 16 23.68 26.72 33.44 21.6 18.08 48.48 22.72 74.4 22.56 44.16-0.32 88-8.64 130.72-19.52 22.24-5.76 44.64-13.6 62.4-29.76-1.44-2.72-4-3.36-6.72-3.36z" fill="#F6F0E1" p-id="5307"></path><path d="M368.16 644.32c14.88 21.6 12.64 27.36-12.32 33.92-8.48 2.24-17.6 3.2-24.32 9.6-7.2-5.6-17.92-10.56-3.36-20 7.52-11.52 0.8-24.64 4.16-36.64 8 15.04 26.56 1.6 35.84 13.12z" fill="#F6F0E1" p-id="5308"></path><path d="M485.28 660.96v-147.04c3.84-2.08 6.88-2.72 6.56 3.36-7.52 19.68-1.44 40.16-3.36 60.16V657.6a31.84 31.84 0 0 1-3.2 3.36z" fill="#DFCA82" p-id="5309"></path><path d="M491.84 517.28c-1.44-2.72-3.84-3.2-6.56-3.36a10.72 10.72 0 0 1 0-3.2c11.2 1.12 21.76 4.32 35.36 9.28-12.48 3.04-20.16-3.36-28.8-2.72z" fill="#DAC37A" p-id="5310"></path><path d="M461.76 376.96l-3.36 3.36c-8 10.24-19.36 19.68-8.96 34.56-1.92 8.96-4.64 17.44-11.84 23.68-8.8 1.44-12.8-4.16-15.84-11.04-3.04-13.12 0.96-26.56-1.92-39.84-1.44-6.88 4.16-12.16 11.68-14.08a11.52 11.52 0 0 0 6.72-6.72c11.68-5.28 13.12 12.8 23.52 10.08z" fill="#EDE5D8" p-id="5311"></path><path d="M431.68 373.6c-15.68 11.2-0.96 27.36-6.4 40.32-1.6 3.68-0.32 8.64-0.32 13.12s-2.08 6.24-4.16 8.96-5.76 6.88-10.88 5.92a10.08 10.08 0 0 1-8.16-9.28c-2.08-18.4-12.16-33.76-18.72-50.56-0.32-4.96 2.88-7.84 6.08-10.72 7.2-6.08 13.12-13.28 20.32-19.2s10.72-10.08 18.72-5.28c5.28 8.32 3.04 17.76 3.52 26.72z" fill="#F5EDDC" p-id="5312"></path><path d="M418.24 290.08l40.16-43.52h-40.16c-6.56 10.88-7.68 23.68-13.12 35.2-3.84 8-7.84 13.76-16.96 14.88 0.48 19.68-18.88 26.08-26.72 40.16-8.96 5.28-12.64 14.24-15.84 23.52 0.8 9.28 6.72 8.64 11.04 4 9.44-9.92 22.24-13.44 33.92-18.88-5.6 8.64-5.28 18.08 0.96 28 13.28-7.52 19.52-24.64 36.8-26.72 10.24-17.92 14.72-38.24 23.36-56.8-9.12 6.72-17.76 14.08-29.12 17.44-2.56-5.76 1.6-12.8-4.32-17.28z" fill="#EDE6D9" p-id="5313"></path><path d="M512 370.72c4.64 4.96 10.88 2.24 16.32 3.04 4.96 5.44 15.36 3.84 17.28 13.28-13.12 8.32-17.12 25.44-31.52 32.8a37.12 37.12 0 0 1-15.68 1.28c-8.16-1.28-12.8-6.56-15.68-13.92a27.36 27.36 0 0 1 0-18.24c3.68-6.08 10.24-7.52 16-10.24a13.12 13.12 0 0 1 4.32-0.32c1.44-0.16 2.08 2.24 2.24 1.92s-0.96-2.72-1.28-4.16a4.96 4.96 0 0 1 1.6-5.44z" fill="#1F1E10" p-id="5314"></path><path d="M438.4 437.12a51.84 51.84 0 0 1 10.08-23.36 1.92 1.92 0 0 1 3.36 0c6.24 9.92 17.12 10.24 26.72 13.28 0 2.72-0.16 5.6 0 8.32 1.28 13.76 1.12 25.92-16.96 28.96-4.8 0.8-8.8 6.24-13.12 9.6-8.96-10.72-16-21.92-10.08-36.8z" fill="#F2ECDD" p-id="5315"></path><path d="M585.6 390.4l-7.04-6.08a35.2 35.2 0 0 1-2.88-4.48h-2.72l-7.84-5.44c-9.44 6.88 0 18.4-6.4 26.08-4.8 1.92-9.76 6.24-13.76-0.96-8.64 0.64-10.72 8.8-15.52 13.92 0 0.16-0.16 0.32-0.16 0.48-6.56-0.96-10.56 5.76-16.16 7.36-8.32 6.88-20-1.76-28 6.08 0 4.32 0.16 8.8 0.16 13.28V464c37.76-6.72 72.32-18.4 90.24-56.8h0.16c2.4-6.24 12.16-7.84 9.92-16.8z" fill="#CBB25F" p-id="5316"></path><path d="M451.68 413.76h-3.36c-12.64-16.16-11.68-19.2 10.08-33.44 0.32 11.68-12.96 20.64-6.72 33.44z" fill="#DEDBD6" p-id="5317"></path><path d="M501.6 380.16c-5.12 3.04-8.96 8.96-16.16 7.04-3.2-4.48-2.88-8.96 0.64-13.12 6.88 0.8 11.52-10.4 19.52-3.52-0.16 1.92-0.32 4-0.64 5.92v1.92a16.48 16.48 0 0 0-3.36 1.76z" fill="#FEFEFD" p-id="5318"></path><path d="M497.6 417.6c-2.72 5.76-8 2.56-12.16 3.2l-3.68-0.48v-3.52c-3.04-3.68-1.44-6.56 1.44-9.28l2.08-0.64c4 3.84 4.64 11.36 12.32 10.72z" fill="#E9E4CD" p-id="5319"></path><path d="M485.92 374.08c-0.16 4.32-0.32 8.8-0.64 13.12s-0.16 13.28-0.16 19.84l-1.28 0.64c-11.68-8.16-4.64-17.92-2.24-27.2v-6.72z" fill="#E9E4CD" p-id="5320"></path><path d="M545.6 387.04c-6.4-0.32-10.88 1.6-14.4 7.84s-10.56 14.72-16 22.08l-17.6 0.64c-3.68 2.72-9.28-1.92-12.16 3.2-0.16 2.08-0.16 4.16-0.32 6.24 9.76-3.04 21.44 8.64 30.08-3.84l16.8-8.64c7.04-2.88 7.04-11.52 12.96-15.2-1.28-4.16 4.48-8 0.64-12.32z" fill="#5F573A" p-id="5321"></path><path d="M712.32 213.12c-10.08-1.28-20-4.96-30.08 0l-20 6.72a2.56 2.56 0 0 0-0.16 3.68c-4.64 2.88-11.2 3.52-12.64 10.24 2.4 6.08 7.36 9.6 12.8 12.8 4.32-0.48 9.44-7.2 12.64 0.8 2.08 4.96 6.24 11.2-1.76 15.84-2.08 1.12-3.04 4.16-4.48 6.4l20.16 11.36a5.6 5.6 0 0 0 0.48 2.24l3.04 0.32c13.12-7.36 25.6-19.68 24.32-32.48-1.12-10.4 0.64-17.92 4.8-25.28 6.72-12.16 3.36-15.2-9.12-12.64z" fill="#543E26" p-id="5322"></path><path d="M451.68 580.8c-0.48 23.52-9.6 36.8-30.08 43.36-14.88-2.08-28.48-7.04-40.16-16.64a12.32 12.32 0 0 1-0.32-2.4c9.12-8.48 23.04-5.76 32.32-13.76a277.92 277.92 0 0 1 33.92-12.64 9.12 9.12 0 0 1 4.32 2.08z" fill="#E6E2DA" p-id="5323"></path><path d="M331.36 624.32c0.16-23.36 0.32-46.88 0.32-70.24 16.16-5.12 9.76 6.24 9.6 12.96a38.56 38.56 0 0 0-1.92 14.72c-1.28 10.56 4.48 14.56 14.08 16.96s20 2.24 28.32 8.96c-4.8 9.76-13.44 15.2-22.4 9.28-13.92-9.12-20.96-3.04-28 7.36z" fill="#E6E2DA" p-id="5324"></path><path d="M328 640.96c-0.16-5.6-0.16-11.2-0.16-16.8-6.56 2.88-15.68-1.76-21.28 4.32-3.68-3.04-7.36-6.08-12.32-7.2-12.64-4.48-18.24-17.92-29.92-23.52-4.16 16.16 8 26.56 14.24 38.72 10.24 19.84 25.76 31.2 49.28 27.84 0.16-7.68 0.16-15.52 0.16-23.36z" fill="#C2A657" p-id="5325"></path><path d="M348 460.64c6.56-2.72 13.12-5.28 19.68-8.16s9.6-2.72 11.68 1.76c10.72 22.56 36.48 32.8 45.6 56.48 4.8 10.4-1.6 16.64-9.6 19.36-16.32 5.28-20.8 20.96-30.24 32-5.12 6.08 1.92 8.32 5.92 10.72s12 5.28 6.56 13.6c-24 11.68-53.12 2.56-59.68-18.88-2.08-4.48 6.88-14.4-6.4-13.44v-43.2c18.08-11.04 16.48-28.48 15.04-45.92a6.08 6.08 0 0 1 1.44-4.32z" fill="#F3F0E3" p-id="5326"></path><path d="M348.16 463.84c13.12 14.08-2.56 27.36-1.92 41.12 0.16 4.96-7.84 8-14.56 5.76 0.16-19.04 0.32-38.24 0.32-57.28l2.72 0.48c5.44 6.88 3.68 15.04 4.32 23.04 4.96-3.2 4.32-9.92 9.12-13.12z" fill="#D9D8D4" p-id="5327"></path><path d="M327.52 507.52c-5.28 6.08-1.6 13.6-3.04 20.32-2.24 1.12-4.32 1.6-5.92-0.8s7.68-11.36-3.36-13.28c2.72-5.76 7.52-9.76 12.32-13.6z" fill="#6D6241" p-id="5328"></path><path d="M328 452.8a4.8 4.8 0 0 1-2.08-0.16c-1.44-14.56-15.84-10.88-24.48-15.36a52.16 52.16 0 0 0-11.04-1.44 79.2 79.2 0 0 0-19.36 1.6c-18.4 4-27.36 15.68-27.84 34.24-0.16 7.84 0 15.36 4.48 22.24l10.56 16.64c6.08 9.28 16 15.68 19.52 26.88 0.48 1.76 0.48 4.8 2.88 4.16s3.2-4.8 3.84-7.68c8.8-8.32 23.04-6.88 30.88-16.96 5.12-4.8 9.76-9.92 12-16.64a4.48 4.48 0 0 0 0.16-3.2z" fill="#252211" p-id="5329"></path><path d="M328 423.68c-10.24-2.56-20.8 1.76-30.88-2.24-3.84-1.44-7.2 1.76-9.12 5.6s-12 2.4-16.8 6.72c0 2.4 0.16 4.64 0.32 7.04l20-0.96h-0.16l9.28 0.64h0.32c7.2 5.6 19.36 0.96 24.32 11.52l0.96 3.04 1.92-2.56 0.96-3.36c-0.32-8.32-0.8-16.96-1.12-25.44z" fill="#DDC37A" p-id="5330"></path><path d="M323.84 532.16c0.96-1.44-0.64-1.76-2.24-1.92l2.72-2.24-5.12-0.64 1.76-1.44c2.08-5.92 6.4-12.96-5.76-12-7.52 4-13.76 10.56-23.2 10.24-6.88-0.16-7.36 4.8-7.36 9.92 6.08 3.52 13.92-2.56 19.68 3.52 0.64 6.24 5.44 6.4 10.24 6.72l6.56 12.8c5.28-7.84 6.56-16.16 2.72-24.96z" fill="#38321E" p-id="5331"></path><path d="M328.32 376.96a5.12 5.12 0 0 0-4.16-1.44c-6.56 3.2-13.76 5.44-15.84 13.6-2.72-2.72-6.88-3.84-10.08-6.08l-1.76-0.96-3.68-1.6h-2.08l-3.2 0.8a34.56 34.56 0 0 1 5.44-2.56 9.12 9.12 0 0 0-1.92-9.92 17.6 17.6 0 0 0-8-2.72c-8.64 0-17.76-2.24-25.28 4.32-3.2 5.12-3.2 10.88-3.52 16.64s0.16 8.96 0.16 13.44c1.12 9.76-3.36 22.72 13.44 23.36 3.36 2.4 0 4.32-0.48 6.4l3.68 3.68c6.72 2.56 12.48 0.8 17.6-4a18.72 18.72 0 0 1 2.4-4.32c2.72-1.44 5.44-2.88 7.84-0.96 10.24 8.16 19.52 2.24 29.12-0.96 0.32-13.28 0.8-26.56 1.44-40-0.32-2.24-0.8-4.48-1.12-6.72z" fill="#E3BB60" p-id="5332"></path><path d="M315.52 374.24a8.8 8.8 0 0 0-3.36 1.92c-0.8-2.56-3.04-4.32-5.6-5.92s-8.48-1.44-12.64-1.92a6.4 6.4 0 0 0-3.52 1.92c0.16 3.52 0.16 6.88 0.32 10.24l0.96-0.32a28.32 28.32 0 0 1 2.56 3.52c3.2 5.12 8.8 4.64 13.6 6.08l17.44-12.16c-2.24-3.68-5.76-4-9.76-3.36z" fill="#5D5435" p-id="5333"></path><path d="M291.68 380.16l2.72 3.68c-0.96-1.12-1.76-2.4-2.72-3.68z" fill="#86794A" p-id="5334"></path><path d="M318.08 344.16c-1.76-4.32-6.4-9.12-12.96-4.32a60.96 60.96 0 0 1-7.2 3.68c0 1.12-0.16 2.24-0.16 3.36-10.24 6.4-7.2 14.56-3.36 23.04 3.2 4.16 7.04 0.96 10.56 0.96l1.28-1.6c0.16-0.64 0.16-1.44 0.32-2.08a5.12 5.12 0 0 0-1.92-3.52v-9.92c1.76-1.28 4.48-2.08 5.12-3.84s11.36 2.08 8.32-5.76z" fill="#F8F5E9" p-id="5335"></path><path d="M446.08 484.96c1.44-3.36 1.6-7.36 2.4-11.04-1.12-12.96-10.72-23.52-10.08-36.8-6.72-0.32-10.4-4.64-13.6-9.76-2.88 0.48-5.44 1.12-6.4 4.32s-2.88 9.28-8.64 7.52-4.64-5.6-4.96-9.6c-1.28-18.56-10.08-33.92-20-48.96l-0.8-0.32h0.96l6.72-6.72c-0.16-11.2-0.64-22.56 3.36-33.44-13.92 5.6-29.92 7.2-39.68 21.12-1.92 2.88-5.92 7.2-7.04-1.12-4.96 4-6.88 11.04-13.44 13.44v0.64c0-0.16-0.16-0.16-0.16-0.32h-2.72l-2.88 10.08c-10.88 11.68-4.48 26.08-6.08 39.2 1.28 8.96-2.4 19.04 6.08 26.4l2.88 4 2.88 3.52c4.32 3.36 9.12 5.76 14.88 5.6 15.04-7.04 25.44-6.4 37.92 8.96s24 28.96 38.08 41.44c6.4 1.92 12.8 3.36 19.36 0.96 3.68-6.24 11.84-0.8 16.96-5.92-22.88-1.76-23.68-3.04-16-23.2z" fill="#F8EFDD" p-id="5336"></path><path d="M334.72 350.24c-1.76 2.72-4.16 3.2-6.72 1.12s-3.52-5.28 0-7.84q6.72 0.32 6.72 6.72z" fill="#F4F4F2" p-id="5337"></path><path d="M324.64 370.88h-0.32a12.32 12.32 0 0 0-0.96-2.4c-6.56-2.24-12.96-2.72-18.88 1.6l0.48 0.64 6.08 6.4 3.68-0.32h0.16l10.4 0.8 2.72-0.64v-6.56z m-7.52 4.48l-2.24 1.44a2.88 2.88 0 0 1 2.24-1.44z" fill="#1D1A0B" p-id="5338"></path><path d="M304.8 363.52v3.52a10.72 10.72 0 0 0 0 3.2l20 0.64a1.92 1.92 0 0 0 3.36-0.48v-3.52c-7.04-6.4-15.68-2.08-23.36-3.36z" fill="#BCBCB9" p-id="5339"></path><path d="M478.56 426.88c-2.08 20-13.44 33.44-30.24 43.2a6.56 6.56 0 0 0-1.92 2.72 86.08 86.08 0 0 0-7.2 18.4c-2.88 12.32 0 16.32 12.32 17.76H448a9.28 9.28 0 0 0-4.48 1.92l-0.96 1.76c-5.44-2.56-11.52-2.08-17.6-2.08-0.32 5.12-2.08 11.84-5.92 13.12-16.64 5.28-24.8 17.28-33.44 31.52s-10.72 15.68 6.56 22.08c3.68 1.44 5.76 3.04 6.08 6.72 5.12 4.16 10.56 1.28 15.68 0.32a191.52 191.52 0 0 1 34.4-3.52h3.36c0-0.16-0.16-0.16-0.16-0.32h0.32c12.96-0.8 19.84 8.16 26.72 16.8 0-38.72-0.16-77.6 0-116.64 0.16-5.76-2.08-12.32 3.2-17.28-1.6-11.84 3.84-24.8-3.2-36.48z" fill="#F1EBDC" p-id="5340"></path><path d="M504.8 376.48c1.76 0.96 3.52 2.08 2.88 4.48l-2.4-0.8a2.72 2.72 0 0 1-0.96-2.4c0.16-0.8 0.48-1.28 0.64-1.28z" fill="#2A2715" p-id="5341"></path><path d="M504.96 376.64c0 1.28 0.16 2.4 0.16 3.68h-3.68z" fill="#0E0B02" p-id="5342"></path><path d="M482.24 415.36c0.48-2.56 1.12-5.12 1.76-7.68-3.68-7.36-2.08-14.88-2.08-22.56a28 28 0 0 0 1.92-5.12 6.88 6.88 0 0 0-2.08-6.4 32.8 32.8 0 0 0-15.04 17.12c-6.24 16.32-0.8 26.88 15.04 29.6a4.48 4.48 0 0 0 1.12-4.32z" fill="#F2ECDD" p-id="5343"></path><path d="M398.24 584.16c16.48-4 32.8-11.84 50.24-3.36-10.4 6.4-21.92 9.76-33.44 13.44-28.96 9.12-55.84 4.96-80.16-13.44 0.48-4.64-1.6-9.92 3.36-13.44q24.32 28.64 60 16.8z" fill="#D7D7D5" p-id="5344"></path><path d="M334.72 580.96c25.92 9.76 52.32 16.32 80.16 13.44-8.96 10.08-23.04 6.88-33.44 13.28-14.24 1.44-27.04-4.8-40.48-7.2-11.04-2.24-4.48-12.96-6.24-19.52z" fill="#DFDED9" p-id="5345"></path><path d="M348.16 463.84c1.12 9.76-2.4 16.64-13.28 22.24v-32.32l13.12 6.72a21.44 21.44 0 0 0 0.16 3.36z" fill="#D6D6D4" p-id="5346"></path></svg>