<svg xmlns="http://www.w3.org/2000/svg" fill="none" viewBox="0 0 18 18"><defs><clipPath id="a"><rect width="18" height="18" rx="0"/></clipPath></defs><g clip-path="url(#a)" fill="currentColor"><path d="M2.172 14.364v-4.55q0-.891.63-1.52.63-.63 1.52-.63h9.356q.89 0 1.52.63.63.629.63 1.52v4.55q0 .89-.63 1.52t-1.52.63H4.322q-.89 0-1.52-.63t-.63-1.52Zm1.3 0q0 .352.25.601.248.25.6.25h9.356q.352 0 .6-.25.25-.249.25-.6V9.813q0-.352-.25-.601-.248-.25-.6-.25H4.322q-.352 0-.6.25-.25.249-.25.6v4.551Z"/><path d="M11.782 5.568v2.746q0 .064.013.126.012.063.037.122.024.06.06.113.035.053.08.098.046.045.099.081.053.036.112.06.06.025.122.037.063.013.127.013t.127-.013q.063-.012.122-.037.059-.024.112-.06.053-.036.099-.08.045-.046.08-.1.036-.053.06-.112.025-.059.038-.122.012-.062.012-.126V5.568q0-1.69-1.196-2.887Q10.691 1.486 9 1.486q-1.69 0-2.886 1.195-1.196 1.196-1.196 2.887v2.746q0 .064.012.126.013.063.037.122.025.06.06.113.036.053.081.098.046.045.099.081.053.036.112.06.06.025.122.037.063.013.127.013t.127-.013q.062-.012.122-.037.059-.024.112-.06.053-.036.098-.08.046-.046.081-.1.036-.053.06-.112.025-.059.037-.122.013-.062.013-.126V5.568q0-1.152.815-1.967.815-.815 1.967-.815 1.152 0 1.967.815.815.815.815 1.967ZM8.35 11.06q0-.065.012-.128.013-.062.037-.121.025-.06.06-.113.036-.053.081-.098.046-.046.099-.081.053-.036.112-.06.06-.025.122-.037.063-.013.127-.013t.127.013q.063.012.122.037.059.024.112.06.053.035.099.08.045.046.08.1.036.052.06.112.025.059.038.121.012.063.012.127v2.06q0 .064-.012.126-.013.063-.037.122-.025.06-.06.113-.036.053-.081.098-.046.045-.099.081-.053.036-.112.06-.06.025-.122.037-.063.013-.127.013t-.127-.013q-.063-.012-.122-.037-.059-.024-.112-.06-.053-.036-.099-.08-.045-.046-.08-.1-.036-.053-.06-.112-.025-.059-.038-.122-.012-.062-.012-.126v-2.06Z" fill-rule="evenodd"/></g></svg>