<svg xmlns="http://www.w3.org/2000/svg" fill="none" viewBox="0 0 47.991 48"><path d="M42.26 39.528c.07-.08.14-.164.206-.243l.164-.197c.061-.075.122-.15.183-.23.056-.07.108-.14.164-.21.056-.076.117-.15.173-.226.057-.07.108-.145.16-.215a9.73 9.73 0 0 0 .168-.23l.155-.22.164-.234.15-.22c.051-.08.108-.16.16-.24.046-.074.098-.15.145-.224.051-.08.103-.164.154-.249.047-.075.094-.15.136-.225.051-.084.103-.173.155-.262l.126-.215c.056-.099.113-.197.169-.3.033-.061.07-.122.103-.188l.253-.478c.033-.06.06-.121.094-.187.051-.103.103-.206.154-.314l.103-.216c.047-.093.09-.192.136-.285l.103-.23c.042-.094.085-.188.122-.281l.098-.234c.038-.094.08-.188.118-.282.032-.08.06-.159.093-.239.038-.093.075-.192.108-.285.028-.08.061-.16.09-.24.037-.098.07-.196.102-.295.028-.08.056-.159.08-.239l.098-.309c.024-.075.047-.15.075-.23l.099-.332c.018-.07.042-.136.06-.206.043-.146.08-.286.118-.431a.994.994 0 0 1 .033-.113c.046-.183.093-.365.136-.548.014-.06.028-.117.037-.178l.084-.38c.014-.075.028-.15.043-.22.023-.112.046-.225.065-.342l.042-.239.056-.328c.014-.08.024-.164.038-.244.014-.107.033-.22.047-.328.01-.084.023-.164.033-.248a7.31 7.31 0 0 0 .037-.328l.028-.248.028-.338c.005-.08.014-.164.02-.243.008-.117.013-.235.023-.352l.014-.23.014-.393c0-.065.004-.131.004-.192.005-.197.01-.393.01-.59 0-6.977-2.995-13.265-7.764-17.651l-.02-.019c-.126-.117-.257-.23-.383-.347-.014-.01-.024-.023-.038-.033l-.38-.323c-.018-.014-.037-.033-.056-.047a11.892 11.892 0 0 0-.375-.304c-.023-.019-.047-.038-.065-.056a11.075 11.075 0 0 0-.37-.286c-.029-.02-.052-.042-.08-.061-.122-.09-.244-.183-.366-.272-.032-.023-.06-.047-.093-.07a24.508 24.508 0 0 0-.361-.253c-.038-.024-.07-.052-.108-.075l-.356-.24c-.037-.027-.08-.05-.117-.079-.117-.075-.234-.15-.356-.225-.042-.028-.085-.051-.127-.08-.117-.07-.234-.145-.351-.215l-.14-.084c-.118-.066-.23-.136-.347-.202L35.588 3a8.156 8.156 0 0 0-.347-.188l-.16-.084c-.112-.06-.229-.117-.341-.173-.057-.028-.113-.057-.174-.085a13.018 13.018 0 0 0-.337-.164l-.183-.084-.337-.155-.192-.084c-.113-.047-.22-.094-.333-.14-.066-.029-.136-.057-.202-.085-.107-.047-.22-.089-.328-.131-.07-.028-.14-.052-.21-.08-.108-.042-.22-.08-.328-.122-.075-.028-.146-.051-.22-.08l-.324-.112c-.075-.023-.155-.051-.23-.075-.107-.032-.215-.07-.318-.103l-.24-.07c-.107-.033-.21-.06-.318-.094-.084-.023-.164-.047-.248-.065L29.904.74c-.084-.023-.173-.042-.258-.065C29.543.65 29.44.623 29.337.6a5.45 5.45 0 0 1-.267-.061c-.103-.024-.202-.042-.305-.066-.093-.018-.187-.037-.28-.051l-.3-.057a5.37 5.37 0 0 0-.291-.046c-.099-.014-.197-.033-.295-.047l-.3-.042c-.099-.014-.192-.03-.29-.038-.104-.014-.207-.023-.315-.037-.093-.01-.187-.024-.28-.033L26.09.094a5.315 5.315 0 0 0-.272-.024c-.117-.01-.234-.014-.347-.023l-.253-.014-.403-.014c-.07 0-.136-.005-.206-.01C24.408.005 24.201 0 24 0c-.206 0-.408.005-.61.01-.07 0-.135.004-.205.009l-.403.014-.253.014c-.117.01-.235.014-.347.023a4.888 4.888 0 0 0-.272.024l-.323.028c-.094.01-.188.019-.281.033-.103.014-.207.023-.314.037-.099.014-.192.028-.29.038l-.3.042c-.099.014-.197.033-.296.047-.098.014-.192.032-.29.046-.099.02-.202.038-.3.057-.094.018-.188.033-.281.051a6.643 6.643 0 0 0-.305.066c-.089.019-.178.037-.267.06-.103.024-.206.048-.31.076a5.22 5.22 0 0 0-.257.065l-.314.085-.248.065c-.108.028-.211.061-.319.094l-.239.07a7.44 7.44 0 0 0-.319.103c-.074.024-.154.052-.23.075l-.322.113c-.075.023-.146.051-.22.08-.108.037-.22.08-.329.121-.07.028-.14.052-.21.08-.113.042-.22.089-.328.131l-.202.084-.333.141-.192.084-.337.155-.183.084c-.112.052-.225.108-.337.164a6.027 6.027 0 0 1-.174.085l-.342.173c-.056.028-.107.056-.159.084-.117.061-.23.127-.347.188l-.15.084c-.117.066-.234.131-.351.202a2.16 2.16 0 0 1-.14.08c-.118.07-.235.14-.352.215-.042.028-.084.051-.127.08l-.356.224c-.037.024-.08.052-.117.08a23.333 23.333 0 0 0-.464.314c-.122.084-.239.169-.36.253-.033.023-.061.047-.094.07-.122.09-.244.178-.366.272-.028.019-.051.042-.08.061l-.37.286c-.023.019-.046.037-.065.056-.127.098-.248.202-.375.305-.019.014-.037.032-.056.046l-.38.324c-.014.01-.023.023-.037.033-.131.112-.258.23-.384.346l-.02.02C2.995 10.734 0 17.022 0 24c0 .197.005.394.01.59 0 .066.004.132.004.192l.014.394.014.23c.005.117.014.234.024.351.004.08.014.164.018.244l.028.337.029.248c.014.113.023.22.037.329.01.084.019.163.033.248.014.108.028.22.047.328.014.08.023.164.037.244l.056.332.043.24c.018.112.042.224.065.341l.042.22.085.38c.014.06.023.117.037.178.042.183.09.366.136.548.01.038.019.075.033.113.037.145.075.29.117.43.019.071.042.137.06.207a29.389 29.389 0 0 0 .17.562l.098.31c.028.08.056.159.08.234.032.098.07.197.103.295.028.08.056.16.089.239.037.094.07.192.108.286.032.08.06.16.093.239.038.093.075.187.117.28.033.08.066.16.099.235.042.094.08.188.122.281.032.075.07.155.103.23.042.094.089.192.13.286.034.075.071.145.104.22.052.103.103.206.155.314.032.06.06.122.093.187l.253.478c.033.061.07.122.103.188.057.098.108.197.17.295.041.07.083.145.126.215.051.09.103.174.154.263.047.075.094.15.136.225l.155.248c.047.075.098.15.145.225.052.08.103.16.16.239.05.075.098.15.15.22.05.08.107.155.163.234l.155.22c.056.076.112.155.169.23l.159.216c.056.075.117.15.173.225.057.07.108.14.164.21.061.076.122.155.183.23.056.066.108.131.164.202.07.084.136.164.206.243a24.23 24.23 0 0 0 1.65 1.753c.13.122.257.248.393.37.01.005.014.014.024.019.126.117.253.23.384.346.014.01.023.024.037.033.127.108.249.216.375.324.019.014.038.032.056.046.122.104.249.202.37.305a.815.815 0 0 1 .066.056c.122.099.244.192.366.286.028.019.056.042.084.06.122.09.244.184.365.273.033.023.061.047.094.07.117.084.24.169.361.253.037.023.07.052.108.075.117.08.239.16.356.239.037.028.08.051.117.08l.351.224c.043.029.085.057.132.08l.351.211.14.084c.118.066.23.136.347.202l.15.084c.113.066.23.127.347.188l.164.084c.112.06.225.117.342.173.056.029.113.057.173.085.113.056.225.108.338.164l.183.084.337.155.192.084c.112.047.22.094.333.14.065.029.136.057.201.085.108.047.22.089.333.131.07.028.14.052.21.08.108.042.221.084.329.122.075.028.145.051.22.08l.323.112c.075.023.155.051.23.075.108.032.21.07.319.103l.238.07c.104.033.211.061.32.094.083.023.163.047.247.065l.314.085c.085.023.174.042.258.065.103.024.206.052.31.075.088.019.177.038.266.061.104.024.202.042.305.066.094.018.187.037.276.051.099.02.202.038.3.057.094.018.192.032.29.046.1.015.198.033.296.047l.3.042c.098.014.192.029.29.038.104.014.207.023.314.037.094.01.188.024.282.033l.323.028a5.3 5.3 0 0 0 .272.024c.117.01.234.014.346.023l.253.014.403.014c.07 0 .136.005.206.01.202.004.408.01.61.01.206 0 .407-.006.609-.01.07 0 .136-.005.206-.01l.403-.014.253-.014c.117-.01.234-.014.347-.023.093-.005.182-.014.271-.024l.324-.028c.093-.01.187-.019.28-.033.104-.014.207-.023.315-.037.098-.014.192-.028.29-.038l.3-.042c.099-.014.197-.032.295-.047.099-.014.192-.032.29-.046l.3-.057c.095-.018.188-.033.277-.051.103-.019.202-.042.305-.066.089-.018.178-.037.267-.06.103-.024.206-.048.31-.076.084-.018.172-.042.257-.065l.314-.085.248-.065c.108-.028.211-.061.319-.094l.239-.07c.107-.033.215-.066.318-.103.075-.024.155-.052.23-.075l.323-.113c.075-.023.146-.051.22-.08.108-.037.22-.079.328-.121.07-.028.141-.052.211-.08.113-.042.22-.089.333-.131l.202-.084c.112-.047.225-.094.332-.141l.192-.084.338-.155.182-.084c.113-.052.225-.108.338-.164.056-.028.117-.056.173-.085.113-.056.23-.117.342-.173l.164-.084c.117-.061.23-.122.347-.188l.15-.084c.117-.066.234-.131.347-.202l.14-.084.352-.21a1.08 1.08 0 0 1 .13-.08l.352-.225c.038-.024.08-.052.117-.08l.357-.239c.037-.023.07-.051.107-.075.122-.084.24-.169.361-.253.033-.023.061-.047.094-.07.122-.09.243-.178.365-.272.028-.019.056-.042.085-.061.121-.094.248-.187.365-.286a.796.796 0 0 0 .066-.056c.126-.098.248-.201.37-.305.019-.014.037-.032.056-.046.127-.108.253-.216.375-.324.014-.01.023-.023.038-.033.13-.112.257-.23.384-.346.01-.005.014-.014.023-.02a22.425 22.425 0 0 0 2.043-2.123Zm3.575-13.897c-.005.075-.014.154-.019.23l-.028.308c-.009.08-.018.16-.023.24-.01.098-.023.196-.033.295-.01.08-.019.159-.033.239l-.042.285c-.014.08-.023.164-.037.244-.014.094-.033.188-.047.281l-.042.244c-.02.094-.033.187-.052.276-.014.08-.033.164-.051.244a4.707 4.707 0 0 1-.061.272c-.02.08-.038.16-.057.243-.023.09-.042.183-.065.272a4.45 4.45 0 0 1-.061.24 7.522 7.522 0 0 1-.075.27c-.023.08-.042.16-.066.235-.028.09-.051.178-.08.267l-.07.235c-.028.089-.056.178-.089.267a12.536 12.536 0 0 1-.173.506c-.023.07-.051.14-.075.21-.056.16-.117.315-.178.474-.028.075-.06.154-.094.23a5.555 5.555 0 0 1-.103.248c-.033.08-.07.16-.103.239-.033.075-.066.154-.103.23-.038.079-.075.163-.113.243-.032.075-.07.15-.102.225l-.118.244c-.037.07-.07.145-.108.215-.042.08-.084.16-.126.244l-.112.21c-.043.08-.09.16-.132.244-.037.07-.075.136-.117.206l-.14.24-.117.2c-.047.08-.094.16-.146.24l-.122.197c-.051.08-.098.159-.15.239a6.628 6.628 0 0 1-.126.187c-.052.08-.103.16-.16.234l-.126.183-.169.239a6.483 6.483 0 0 0-.126.173c-.056.08-.117.16-.178.24a3.59 3.59 0 0 0-.122.159c-.06.08-.126.164-.187.243-.038.047-.075.094-.113.136-.07.085-.14.174-.21.258a.247.247 0 0 1-.047.051c-.197.235-.399.464-.6.694-1.654-.782-3.524-1.443-5.567-1.959 1.083-3.369 1.739-7.319 1.842-11.587h9.37c-.004.051-.004.108-.008.159.004.103 0 .21-.01.319Zm-9.947 16.75c-.122.08-.244.155-.366.23-.023.015-.042.029-.066.043a8.425 8.425 0 0 1-.435.257l-.333.192c-.038.02-.07.043-.108.061-.108.061-.22.122-.328.178-.037.024-.08.043-.117.061l-.323.169c-.042.023-.085.042-.127.066-.108.051-.215.107-.323.159l-.131.06c-.108.052-.216.104-.328.15-.042.02-.09.038-.131.057-.113.047-.22.098-.333.145-.042.019-.08.033-.122.052l-.351.14c-.029.01-.057.024-.085.033-.412.16-.83.305-1.256.44l-.084.029c-.103.033-.206.06-.304.093a1.404 1.404 0 0 1-.132.038c1.5-1.574 2.802-3.72 3.838-6.298a30.4 30.4 0 0 1 4.676 1.556 21.51 21.51 0 0 1-2.703 2.071c-.014.01-.024.014-.028.019Zm-18.439 2.526-.084-.028a22.025 22.025 0 0 1-1.256-.44c-.028-.01-.056-.019-.08-.033l-.35-.14a1.296 1.296 0 0 0-.123-.047c-.112-.047-.224-.094-.332-.146-.042-.018-.09-.037-.132-.056-.107-.047-.22-.098-.328-.15-.042-.018-.088-.042-.13-.06a10.38 10.38 0 0 1-.324-.16c-.042-.023-.084-.042-.127-.066l-.323-.168-.117-.061c-.112-.061-.22-.117-.328-.178a1.25 1.25 0 0 1-.108-.061 7.664 7.664 0 0 1-.332-.192.867.867 0 0 0-.09-.052l-.346-.206c-.024-.014-.042-.028-.066-.037-.122-.075-.243-.155-.365-.23-.005-.005-.014-.01-.019-.014A21.924 21.924 0 0 1 9.39 40.31a30.394 30.394 0 0 1 4.676-1.556c1.031 2.577 2.338 4.723 3.838 6.298a1.366 1.366 0 0 0-.131-.038 3.729 3.729 0 0 0-.324-.108ZM7.118 37.95c-.07-.084-.141-.173-.211-.258-.038-.046-.075-.089-.108-.135-.066-.08-.127-.164-.188-.244a3.518 3.518 0 0 1-.121-.16c-.061-.079-.117-.159-.178-.238a5.543 5.543 0 0 1-.127-.174l-.169-.239-.126-.182c-.052-.08-.108-.16-.16-.24a4.235 4.235 0 0 1-.121-.187 6.577 6.577 0 0 1-.15-.239c-.042-.065-.08-.131-.122-.197-.047-.08-.098-.159-.145-.239-.042-.065-.08-.135-.117-.201a6.545 6.545 0 0 1-.136-.239 4.54 4.54 0 0 0-.117-.206c-.043-.08-.09-.16-.132-.24l-.112-.21-.127-.244c-.037-.07-.07-.145-.107-.215-.043-.08-.08-.164-.118-.244a5.613 5.613 0 0 1-.103-.225c-.037-.08-.075-.16-.112-.243-.033-.075-.066-.155-.103-.23-.033-.08-.07-.16-.103-.239-.033-.084-.07-.169-.103-.253-.033-.075-.061-.15-.094-.225a13.22 13.22 0 0 1-.178-.473c-.024-.07-.052-.14-.075-.211l-.098-.281c-.024-.075-.052-.15-.075-.23l-.09-.267-.07-.234a5.763 5.763 0 0 1-.08-.267c-.023-.08-.042-.16-.065-.24-.023-.088-.052-.177-.075-.27-.019-.08-.042-.16-.06-.24a5.717 5.717 0 0 1-.066-.272l-.057-.239c-.018-.093-.042-.182-.06-.276-.02-.08-.033-.16-.052-.244a7.047 7.047 0 0 1-.052-.276l-.042-.244c-.014-.094-.033-.187-.047-.281-.014-.08-.023-.164-.037-.244l-.042-.285c-.01-.08-.024-.16-.033-.24a6.31 6.31 0 0 1-.033-.295 3.219 3.219 0 0 1-.023-.239l-.029-.309c-.004-.075-.014-.154-.018-.23-.01-.107-.014-.215-.019-.323-.005-.051-.005-.108-.01-.16h9.372c.098 4.274.759 8.22 1.841 11.589-2.038.515-3.912 1.176-5.566 1.958-.206-.23-.408-.464-.61-.698-.018 0-.032-.014-.041-.033Zm4.976-32.33c.122-.08.243-.156.365-.23.024-.015.042-.029.066-.043a8.499 8.499 0 0 1 .436-.257c.112-.066.224-.127.332-.192.038-.02.07-.043.108-.061.108-.061.22-.122.328-.178.038-.024.08-.043.117-.061l.323-.169c.043-.023.085-.042.127-.066.108-.051.216-.107.323-.159l.132-.06c.107-.052.215-.104.328-.15.042-.02.088-.038.13-.057.113-.047.226-.098.333-.145.043-.019.08-.033.122-.052.117-.047.235-.098.352-.14.028-.01.056-.024.084-.033.412-.16.83-.305 1.251-.44l.084-.029c.104-.033.207-.06.31-.093a.89.89 0 0 1 .13-.038c-1.499 1.574-2.801 3.72-3.837 6.298a30.387 30.387 0 0 1-4.676-1.556 21.813 21.813 0 0 1 2.699-2.071.15.15 0 0 0 .033-.019Zm18.442-2.526.085.028c.422.136.843.28 1.256.44.028.01.056.024.084.033l.351.14c.043.02.085.033.122.052.113.047.225.094.333.145l.131.057c.108.046.22.098.328.15.042.018.09.042.131.06.108.052.216.103.328.16.042.018.085.042.127.06l.328.17.117.06c.108.061.22.117.328.178.037.019.07.042.108.061.112.061.225.127.332.192a.832.832 0 0 0 .09.052l.346.206c.024.014.042.028.066.042.122.075.243.155.365.23l.019.014a22.815 22.815 0 0 1 2.704 2.07 30.39 30.39 0 0 1-4.677 1.557c-1.03-2.578-2.338-4.724-3.837-6.298.042.014.084.023.126.037.103.043.206.07.31.104Zm5.956 19.759c-.098-4.273-.76-8.219-1.841-11.588 2.038-.515 3.912-1.176 5.566-1.958a21.83 21.83 0 0 1 5.646 13.55h-9.371v-.004Zm-13.65-12.426a42.022 42.022 0 0 1-6.69-.703c1.686-4.058 4.057-6.85 6.69-7.488v8.19Zm0 2.085v10.341h-9.268c.108-4.076.774-7.9 1.837-11.124 2.315.45 4.812.722 7.432.783Zm0 12.637V35.49a44.472 44.472 0 0 0-7.43.783c-1.065-3.229-1.73-7.047-1.838-11.124h9.269Zm0 12.426v8.19c-2.633-.636-5.004-3.429-6.69-7.487a42.085 42.085 0 0 1 6.69-.703Zm2.297 0a42.04 42.04 0 0 1 6.69.703c-1.686 4.058-4.057 6.85-6.69 7.488v-8.19Zm0-2.085V25.148h9.268c-.108 4.076-.773 7.9-1.837 11.124a44.496 44.496 0 0 0-7.431-.783Zm0-12.637V12.511a44.496 44.496 0 0 0 7.431-.783c1.064 3.229 1.73 7.048 1.837 11.124h-9.268Zm0-12.426v-8.19c2.633.636 5.004 3.429 6.69 7.487a42.08 42.08 0 0 1-6.69.703ZM7.764 9.3c1.654.783 3.524 1.443 5.567 1.959-1.083 3.369-1.739 7.319-1.842 11.587H2.118A21.788 21.788 0 0 1 7.764 9.301Z" fill="currentColor"/></svg>