<svg xmlns="http://www.w3.org/2000/svg" fill="none" viewBox="0 0 28 28"><circle cx="14" cy="14" fill="#F7931A" r="12"/><circle cx="14" cy="14" stroke="#FFF" stroke-width="2" r="13"/><path d="M19.451 12.11c.24-1.597-.977-2.456-2.64-3.028l.54-2.164-1.317-.328-.525 2.107a54.491 54.491 0 0 0-1.055-.249l.529-2.12L13.667 6l-.54 2.162c-.286-.065-.567-.13-.84-.197l.001-.007-1.816-.453-.35 1.406s.977.224.956.238c.534.133.63.486.614.766l-.614 2.464c.036.01.084.023.137.044l-.039-.01a9.61 9.61 0 0 0-.1-.024l-.862 3.452c-.065.162-.23.405-.603.313.013.019-.957-.24-.957-.24L8 17.423l1.714.427c.187.047.373.096.556.143l.382.1-.544 2.188 1.315.328.54-2.165c.359.097.707.187 1.049.272l-.538 2.155 1.317.328.545-2.184c2.245.425 3.934.254 4.644-1.777.573-1.636-.028-2.579-1.21-3.194.86-.198 1.509-.764 1.682-1.933Zm-3.008 4.218c-.374 1.5-2.722.88-3.796.597a12.07 12.07 0 0 0-.257-.067l.723-2.899c.09.023.2.047.324.075 1.111.25 3.388.76 3.006 2.294ZM13.66 12.69c.895.239 2.85.76 3.19-.603.347-1.395-1.552-1.815-2.48-2.02a11.317 11.317 0 0 1-.27-.063l-.656 2.63a9.4 9.4 0 0 1 .216.056Z" fill-rule="evenodd" fill="#FFF"/></svg>