<svg xmlns="http://www.w3.org/2000/svg" viewBox="0 0 28 28" fill="none">
  <circle cx="14" cy="14" r="12" fill="#C2A633"/>
  <circle cx="14" cy="14" r="13" stroke="#fff" stroke-width="2"/>
  <path fill="#fff" d="M10.5 8h4.7c1.9 0 3.4.5 4.5 1.3 1.1.9 1.9 2 2.3 3.5.5 1.5.5 3 0 4.5-.5 1.5-1.3 2.7-2.3 3.5-1.1.9-2.6 1.3-4.5 1.3H10.5V8zm2.8 2.2v8.8h1.8c1 0 1.9-.2 2.5-.8.6-.6 1-1.3 1.3-2.1.2-.9.2-1.9 0-2.7-.2-.9-.7-1.6-1.3-2.1-.6-.6-1.5-.8-2.5-.8h-1.8z"/>
  <path fill="#fff" d="M6.5 12.8h8.8v2.7H6.5z"/>
</svg>
