<svg xmlns="http://www.w3.org/2000/svg" fill="none" viewBox="0 0 10 10"><path d="M9 5a4 4 0 0 1-4 4v1a5 5 0 0 0 5-5H9ZM5 9a4 4 0 0 1-4-4H0a5 5 0 0 0 5 5V9ZM1 5a4 4 0 0 1 4-4V0a5 5 0 0 0-5 5h1Zm4-4a4 4 0 0 1 4 4h1a5 5 0 0 0-5-5v1Zm1 4c0 1.204-.163 2.273-.414 3.024-.126.378-.265.648-.395.813a.618.618 0 0 1-.15.145.146.146 0 0 1-.033.016L5 9v1c.426 0 .752-.26.977-.544.228-.29.413-.68.558-1.116C6.828 7.462 7 6.281 7 5H6ZM5 9l-.008-.002a.146.146 0 0 1-.033-.016.618.618 0 0 1-.15-.145c-.13-.165-.27-.435-.395-.813C4.164 7.273 4 6.204 4 5H3c0 1.281.172 2.462.465 3.34.145.436.33.825.558 1.116.225.285.551.544.977.544V9ZM4 5c0-1.204.163-2.273.414-3.024.126-.378.265-.648.395-.813a.618.618 0 0 1 .15-.145.148.148 0 0 1 .033-.016L5 1V0c-.426 0-.752.26-.977.544-.228.29-.413.68-.558 1.116C3.172 2.538 3 3.719 3 5h1Zm1-4 .008.002a.148.148 0 0 1 .033.016.618.618 0 0 1 .15.145c.13.165.27.435.395.813C5.836 2.727 6 3.796 6 5h1c0-1.281-.172-2.462-.465-3.34-.145-.436-.33-.826-.558-1.116C5.752.26 5.426 0 5 0v1ZM.5 5.5h9v-1h-9v1Z" fill="currentColor"/></svg>