<svg xmlns="http://www.w3.org/2000/svg" fill="none" viewBox="0 0 38 38"><path d="M37.431 23.596C34.894 33.775 24.584 39.97 14.405 37.431 4.229 34.894-1.965 24.584.573 14.406 3.11 4.226 13.42-1.97 23.596.569 33.775 3.106 39.969 13.417 37.43 23.596Z" fill="#303133"/><path d="M13.337 25.702h-.105c-.41 0-.783.024-.785.024l-5.418.366 2.984-4.47c.162-.244.343-.543.478-.786C9.311 15.25 13.637 10.006 19.43 10a9.247 9.247 0 0 1 6.093 2.288l.24.002c.37 0 .686-.017.687-.017l5.55-.325-3.184 4.492c-.148.21-.313.463-.445.68.826 3.812-.931 7.713-4.354 9.667-3.423 1.954-7.734 1.516-10.68-1.085Zm1.326-2.436c2.048 2.22 5.394 2.727 8.024 1.214 2.63-1.514 3.825-4.634 2.865-7.481q-.135-.4 1.059-2.08-.384.023-.848.023c-.626 0-1.399-.04-1.577-.233-2.042-2.192-5.356-2.693-7.972-1.206-2.615 1.488-3.832 4.565-2.925 7.403q.139.433-1.028 2.174.454-.031.97-.031c.594 0 1.27.04 1.432.217Z" fill="#FFF"/><ellipse cx="7.73" cy="13.738" rx="1.73" ry="1.708" fill="#FFF"/><ellipse cx="7.73" cy="13.738" rx="1.73" ry="1.708"/></svg>