<svg xmlns="http://www.w3.org/2000/svg" fill="none" viewBox="0 0 14 14"><defs><mask id="a" style="mask-type:alpha" maskUnits="userSpaceOnUse"><rect width="14" height="14" rx="0" fill="currentColor"/></mask></defs><g mask="url(#a)"><path d="M1.532 7.518a.5.5 0 0 0-.146.32l-.303 4.546a.5.5 0 0 0 .533.532l4.545-.303a.5.5 0 0 0 .32-.145l6.585-6.585a.5.5 0 0 0 0-.707L8.824.934a.5.5 0 0 0-.708 0L1.532 7.518Zm1.124 3.826.202-3.03L8.47 2.7l2.828 2.829-5.611 5.612-3.03.202Z" fill-rule="evenodd" fill="currentColor"/></g></svg>