<svg xmlns="http://www.w3.org/2000/svg" fill="none" width="16" height="16" viewBox="0 0 16 16"><path d="M8 0q-.196 0-.393.01-.196.01-.391.029-.196.019-.39.048-.194.028-.387.067-.192.038-.383.086-.19.047-.378.104-.188.057-.373.124-.185.066-.366.141-.182.075-.36.16-.177.083-.35.176-.173.092-.342.193-.168.101-.332.21-.163.11-.32.226-.158.117-.31.242-.152.124-.297.256-.146.132-.285.271-.139.139-.27.285-.133.145-.257.297-.125.152-.242.31-.117.157-.226.32-.109.164-.21.332-.1.169-.193.342-.093.173-.177.35-.084.178-.159.36-.075.181-.141.366-.067.185-.124.373-.057.188-.104.378-.048.19-.086.383-.039.193-.067.387-.03.194-.048.39-.02.195-.03.391Q0 7.804 0 8t.01.393q.01.196.029.391.019.196.048.39.028.194.067.387.038.192.086.383.047.19.104.378.057.188.124.373.066.185.141.367.075.18.16.358.083.178.176.351.092.173.193.342.101.168.21.332.11.163.226.32.117.158.242.31.124.152.256.298.132.145.271.284.139.139.285.27.145.133.297.257.152.125.31.242.157.117.32.226.164.109.332.21.169.1.342.193.173.093.35.177.178.084.36.159.181.075.366.141.185.066.373.123.188.058.378.105.19.048.383.086.193.039.387.067.194.03.39.048.195.02.391.03Q7.804 16 8 16t.393-.01q.196-.01.391-.029.196-.019.39-.048.194-.028.387-.067.192-.038.383-.086.19-.047.378-.104.188-.058.373-.124t.367-.141q.18-.075.358-.16.178-.083.351-.176.173-.092.342-.193.168-.101.332-.21.163-.11.32-.226.158-.117.31-.242.152-.124.298-.256.145-.132.284-.271.139-.139.27-.284.133-.146.257-.298.125-.152.242-.31.117-.157.226-.32.109-.164.21-.332.1-.169.193-.342.093-.173.177-.35.084-.178.159-.36.075-.181.141-.366.066-.185.123-.373.058-.188.105-.378.048-.19.086-.383.039-.193.067-.387.03-.194.048-.39.02-.195.03-.391Q16 8.196 16 8t-.01-.393q-.01-.196-.029-.391-.019-.196-.048-.39-.028-.194-.067-.387-.038-.192-.086-.383-.047-.19-.104-.378-.058-.188-.124-.373t-.141-.366q-.075-.182-.16-.36-.083-.177-.176-.35-.092-.173-.193-.342-.101-.168-.21-.332-.11-.163-.226-.32-.117-.158-.242-.31-.124-.152-.256-.297-.132-.146-.271-.285-.139-.139-.284-.27-.146-.133-.298-.257-.152-.125-.31-.242-.157-.117-.32-.226-.164-.109-.332-.21-.169-.1-.342-.193-.173-.093-.35-.177-.178-.084-.36-.159-.181-.075-.366-.141Q10.51.4 10.322.344 10.134.287 9.944.24 9.754.192 9.56.154 9.368.115 9.174.087q-.194-.03-.39-.048-.195-.02-.391-.03Q8.196 0 8 0ZM4 7.833c0-.46.373-.833.833-.833H11.5a.833.833 0 0 1 0 1.667H4.833A.833.833 0 0 1 4 7.833Z" fill-rule="evenodd" fill="#FA5151"/></svg>