<svg xmlns="http://www.w3.org/2000/svg" fill="none" viewBox="0 0 22 22"><defs><clipPath id="a"><rect width="22" height="22" rx="0"/></clipPath></defs><g clip-path="url(#a)" fill-rule="evenodd" fill="currentColor"><path d="M9.81 19.017q.529-.392 1.19-.392.661 0 1.19.392.52.386.716.998.022.07.057.134.035.063.082.12.047.055.103.101.057.046.122.08.064.034.134.055.07.021.142.028.073.007.145 0 .073-.007.143-.027 2.496-.744 4.312-2.63.048-.05.086-.108.038-.057.065-.12.026-.064.041-.132.015-.067.017-.136.002-.069-.008-.137t-.033-.133q-.023-.065-.057-.125t-.078-.113q-.47-.558-.47-1.289 0-.828.585-1.414.586-.586 1.414-.586.1 0 .2.01.068.007.137.001.068-.006.135-.024.066-.019.128-.049.062-.03.118-.07.055-.042.102-.092.048-.05.085-.109.037-.058.063-.122.026-.063.04-.131.2-.984.2-1.997 0-1.529-.454-2.975-.017-.057-.044-.11-.027-.054-.062-.103-.035-.048-.077-.09-.042-.043-.09-.078-.049-.036-.102-.063-.053-.027-.11-.045-.057-.019-.116-.028-.06-.009-.12-.008h-.033q-.828 0-1.414-.586T17.708 5.5q0-.468.205-.883.027-.054.044-.111.018-.058.026-.117.009-.06.007-.12-.001-.06-.012-.12-.01-.058-.031-.115-.02-.057-.05-.11-.028-.052-.065-.1-.037-.047-.08-.088-1.776-1.65-4.1-2.294-.063-.017-.127-.024-.064-.006-.128-.001-.064.004-.127.02-.062.015-.121.041-.059.026-.112.062-.054.035-.1.08-.048.044-.086.095-.039.052-.068.109-.252.495-.725.79-.483.303-1.058.303-.575 0-1.058-.303-.473-.295-.725-.79-.03-.057-.068-.109-.038-.051-.085-.096-.047-.044-.1-.08-.054-.035-.113-.06-.059-.027-.121-.042-.063-.016-.127-.02-.064-.005-.128.001-.064.007-.126.024-2.325.643-4.1 2.294-.044.041-.081.089-.037.047-.066.1-.029.052-.049.11-.02.056-.031.115-.01.059-.012.12-.002.06.007.119.008.06.026.117.017.057.044.111.205.415.205.883 0 .828-.586 1.414T2.297 7.5h-.039q-.06 0-.119.008-.059.01-.116.028-.057.018-.11.045t-.102.063q-.048.035-.09.077-.042.043-.077.091-.035.049-.062.102-.027.054-.044.111Q1.083 9.471 1.083 11q0 1.013.202 1.997.013.068.04.131.025.064.062.122.037.059.085.109.047.05.102.091.056.041.118.071.062.03.128.049.067.018.135.024.07.006.138 0 .099-.01.199-.01.828 0 1.414.585.586.586.586 1.414 0 .731-.47 1.29-.045.052-.08.112-.033.06-.056.125t-.033.133q-.01.068-.008.137.002.07.017.136.015.068.041.131.027.064.065.121.038.058.086.108 1.816 1.886 4.312 2.63.07.02.143.027.072.007.145 0 .072-.007.142-.028.07-.02.134-.055.065-.034.122-.08.056-.046.103-.102.047-.056.082-.12.035-.063.057-.133.196-.612.716-.998Zm3.274-1.204q-.927-.688-2.084-.688t-2.084.688q-.59.438-.942 1.045-1.448-.553-2.604-1.6.422-.76.422-1.675 0-1.45-1.025-2.475-.895-.894-2.113-1.008-.07-.545-.07-1.1 0-1.042.247-2.038 1.108-.16 1.936-.987Q5.792 6.95 5.792 5.5q0-.516-.144-.997 1.16-.961 2.575-1.452.378.494.923.835.849.53 1.854.53 1.005 0 1.854-.53.545-.341.923-.835 1.415.49 2.575 1.452-.144.48-.144.997 0 1.45 1.025 2.475.83.829 1.936.987.248.996.248 2.038 0 .555-.071 1.1-1.218.114-2.113 1.008-1.025 1.026-1.025 2.475 0 .915.422 1.675-1.156 1.047-2.604 1.6-.352-.607-.942-1.045Z"/><path d="M8.201 8.201Q7.041 9.361 7.041 11q0 1.64 1.16 2.799 1.16 1.16 2.799 1.16 1.64 0 2.799-1.16 1.16-1.16 1.16-2.799 0-1.64-1.16-2.799-1.16-1.16-2.799-1.16-1.64 0-2.799 1.16Zm1.06 4.537q-.72-.72-.72-1.738t.72-1.738q.72-.72 1.739-.72 1.018 0 1.738.72t.72 1.738q0 1.018-.72 1.738t-1.738.72q-1.018 0-1.738-.72Z"/></g></svg>