<svg xmlns="http://www.w3.org/2000/svg" fill="none" viewBox="0 0 38 38"><defs><linearGradient x1=".087" y1="1" x2="1" y2=".097" id="a"><stop offset="0%" stop-color="#71F1F6"/><stop offset="100%" stop-color="#1C27FE"/></linearGradient><linearGradient x1=".087" y1="1" x2="1" y2=".097" id="b"><stop offset="0%" stop-color="#71F1F6"/><stop offset="100%" stop-color="#1C27FE"/></linearGradient></defs><circle cx="19" cy="19" fill="#FFF" r="19"/><circle cx="19" cy="19" stroke="#F5F7F9" r="18.5"/><path d="M13.337 25.702h-.105c-.41 0-.783.024-.785.024l-5.418.366 2.984-4.47c.162-.244.343-.543.478-.786C9.311 15.25 13.637 10.006 19.43 10a9.247 9.247 0 0 1 6.093 2.288l.24.002c.37 0 .686-.017.687-.017l5.55-.325-3.184 4.492c-.148.21-.313.463-.445.68.826 3.812-.931 7.713-4.354 9.667-3.423 1.954-7.734 1.516-10.68-1.085Zm1.326-2.436c2.048 2.22 5.394 2.727 8.024 1.214 2.63-1.514 3.825-4.634 2.865-7.481q-.135-.4 1.059-2.08-.384.023-.848.023c-.626 0-1.399-.04-1.577-.233-2.042-2.192-5.356-2.693-7.972-1.206-2.615 1.488-3.832 4.565-2.925 7.403q.139.433-1.028 2.174.454-.031.97-.031c.594 0 1.27.04 1.432.217Z" fill="url(#a)"/><ellipse cx="7.73" cy="13.738" rx="1.73" ry="1.708" fill="url(#b)"/></svg>