<svg xmlns="http://www.w3.org/2000/svg" fill="none" width="44" height="44" viewBox="0 0 44 44"><defs><linearGradient x1="0" y1="1" x2="1" y2=".214" id="a"><stop offset="0%" stop-color="#49FEFF"/><stop offset="100%" stop-color="#0314FF"/></linearGradient></defs><circle cx="22" cy="22" fill="#F1FAFF" r="22"/><path d="M22.138 14.094c2.104 0 4.161.848 5.623 2.4.211.224 1.124.272 1.864.272.55 0 1.003-.026 1.003-.026s-1.412 1.959-1.252 2.425c1.121 3.268-.233 6.959-3.422 8.748a7.753 7.753 0 0 1-3.801.993c-2.117 0-4.187-.858-5.65-2.43-.191-.204-.99-.252-1.693-.252-.61 0-1.146.036-1.146.036s1.378-2.03 1.214-2.536c-1.053-3.24.307-6.868 3.459-8.637a7.754 7.754 0 0 1 3.801-.993Zm0-3.094v3.094V11c-1.887 0-3.752.487-5.393 1.408-2.142 1.202-3.807 3.1-4.688 5.343a10.276 10.276 0 0 0-.487 5.89c-.16.285-.373.634-.565.917l-3.528 5.216 6.406-.427c.002 0 .443-.029.927-.029h.125A11.01 11.01 0 0 0 22.153 32c1.887 0 3.752-.487 5.393-1.408 2.168-1.216 3.843-3.14 4.717-5.417.722-1.878.872-3.924.447-5.868.156-.254.351-.55.526-.794L37 13.273l-6.562.378a16.303 16.303 0 0 1-1.096.018A11.018 11.018 0 0 0 22.14 11Z" fill="url(#a)"/><ellipse cx="8.959" cy="15.199" rx="1.959" ry="1.904" fill="#51C1E1"/></svg>