<svg xmlns="http://www.w3.org/2000/svg" fill="none" width="17" height="16" viewBox="0 0 17 16"><path d="M9.842 1.703q-.139-.14-.214-.323-.075-.183-.075-.38V.994q.002-.199.079-.382.077-.184.218-.323.14-.139.323-.214.183-.075.38-.075h.006q.2.001.382.078.184.078.324.22l1.482 1.5 2.46 2.488q.608.616.274 1.415-.333.799-1.2.799H1q-.099 0-.195-.02-.097-.018-.188-.056-.09-.038-.173-.093-.081-.054-.151-.124-.07-.07-.124-.151-.055-.082-.093-.173-.038-.091-.057-.188Q0 5.6 0 5.5q0-.098.02-.195.018-.097.056-.188.038-.09.093-.173.054-.081.124-.151.07-.07.151-.124.082-.055.173-.093.091-.038.188-.057Q.9 4.5 1 4.5h11.606l-1.282-1.297-1.482-1.5ZM7.158 14.297q.139.14.214.323.075.183.075.38v.006q-.002.199-.079.382-.077.184-.218.323-.14.139-.323.214-.183.075-.38.075H6.44q-.2-.001-.382-.078-.184-.078-.324-.22l-1.482-1.5-2.46-2.488q-.608-.616-.274-1.415.333-.799 1.2-.799H16q.099 0 .195.02.097.018.188.056.09.038.173.093.081.054.151.124.07.07.124.151.055.082.093.173.038.091.057.188.019.096.019.195 0 .098-.02.195-.018.097-.056.188-.038.09-.093.173-.054.081-.124.151-.07.07-.151.124-.082.055-.173.093-.091.038-.188.057-.096.019-.195.019H4.394l1.282 1.297 1.482 1.5Z" fill-rule="evenodd" fill="currentColor"/></svg>