<svg xmlns="http://www.w3.org/2000/svg" fill="none" width="15.998" height="16" viewBox="0 0 15.998 16"><defs><mask id="a" style="mask-type:alpha" maskUnits="userSpaceOnUse"><rect width="15.998" height="16" rx="0" fill="#FFF"/></mask></defs><g mask="url(#a)"><path d="M14.663 1.33a4.501 4.501 0 0 0-6.368 0L6.277 3.344 7.34 4.405 9.355 2.39c1.12-1.118 3.01-1.237 4.247 0s1.119 3.124 0 4.243l-2.017 2.015 1.063 1.062 2.017-2.015a4.502 4.502 0 0 0-.001-6.365ZM6.628 13.604c-1.12 1.118-3.01 1.237-4.247 0-1.239-1.239-1.119-3.126 0-4.244l2.017-2.014-1.064-1.063-2.016 2.015a4.495 4.495 0 0 0 0 6.363 4.502 4.502 0 0 0 6.368 0l2.018-2.015-1.062-1.061-2.014 2.02ZM2.752 1.703a.167.167 0 0 0-.235 0l-.824.823a.166.166 0 0 0 0 .235l11.538 11.53a.166.166 0 0 0 .235 0l.824-.823a.166.166 0 0 0 0-.235L2.752 1.703Z" fill="#666"/></g></svg>